<?xml version="1.0" encoding="UTF-8" standalone="no"?>
<svg xmlns="http://www.w3.org/2000/svg" xmlns:xlink="http://www.w3.org/1999/xlink" width="2341.5364" height="1142.5308" version="1.0">
  <defs>
    <linearGradient id="v">
      <stop offset="0"/>
      <stop offset="1" stop-opacity="0"/>
    </linearGradient>
    <linearGradient id="u">
      <stop offset="0" stop-opacity=".48947367"/>
      <stop offset="1" stop-color="#fff" stop-opacity=".7473684"/>
    </linearGradient>
    <linearGradient id="t">
      <stop offset="0"/>
      <stop offset="1" stop-opacity="0"/>
    </linearGradient>
    <linearGradient id="s">
      <stop offset="0"/>
      <stop offset="1" stop-opacity="0"/>
    </linearGradient>
    <linearGradient id="r">
      <stop offset="0"/>
      <stop offset="1" stop-opacity="0"/>
    </linearGradient>
    <linearGradient id="q">
      <stop offset="0" stop-color="#fff"/>
      <stop offset="1" stop-color="#fff" stop-opacity="0"/>
    </linearGradient>
    <linearGradient id="p">
      <stop offset="0"/>
      <stop offset="1" stop-opacity="0"/>
    </linearGradient>
    <linearGradient id="o">
      <stop offset="0"/>
      <stop offset="1" stop-opacity="0"/>
    </linearGradient>
    <linearGradient id="C">
      <stop offset="0"/>
      <stop offset="1" stop-opacity="0"/>
    </linearGradient>
    <linearGradient id="B">
      <stop offset="0"/>
      <stop offset="1" stop-opacity="0"/>
    </linearGradient>
    <linearGradient id="n">
      <stop offset="0"/>
      <stop offset=".5" stop-opacity="0"/>
      <stop offset="1"/>
    </linearGradient>
    <linearGradient id="m">
      <stop offset="0" stop-color="#fff" stop-opacity="0"/>
      <stop offset=".53571427" stop-color="#fff" stop-opacity=".78350514"/>
      <stop offset="1" stop-color="#fff" stop-opacity="0"/>
    </linearGradient>
    <linearGradient id="l">
      <stop offset="0" stop-color="#fff"/>
      <stop offset="1" stop-color="#fff" stop-opacity="0"/>
    </linearGradient>
    <linearGradient id="A">
      <stop offset="0" stop-color="#fff"/>
      <stop offset="1" stop-color="#fff" stop-opacity="0"/>
    </linearGradient>
    <linearGradient id="z">
      <stop offset="0" stop-color="#272727"/>
      <stop offset="1" stop-color="#838383"/>
    </linearGradient>
    <linearGradient id="y">
      <stop offset="0" stop-color="#fff" stop-opacity=".70103091"/>
      <stop offset="1" stop-color="#fff" stop-opacity="0"/>
    </linearGradient>
    <linearGradient id="k">
      <stop offset="0" stop-color="#121b43"/>
      <stop offset="1" stop-color="#fff"/>
    </linearGradient>
    <linearGradient id="j">
      <stop offset="0" stop-color="#fff"/>
      <stop offset=".5" stop-color="#a1a1a1" stop-opacity="0"/>
      <stop offset="1" stop-color="#fff"/>
    </linearGradient>
    <linearGradient id="i">
      <stop offset="0"/>
      <stop offset="1" stop-opacity="0"/>
    </linearGradient>
    <linearGradient id="h">
      <stop offset="0" stop-color="#fff"/>
      <stop offset="1" stop-color="#fff" stop-opacity="0"/>
    </linearGradient>
    <linearGradient id="g">
      <stop offset="0" stop-color="#fff" stop-opacity="0"/>
      <stop offset=".53571427" stop-color="#fff" stop-opacity=".57731956"/>
      <stop offset="1" stop-color="#fff" stop-opacity="0"/>
    </linearGradient>
    <linearGradient id="f">
      <stop offset="0" stop-color="#fff"/>
      <stop offset="1" stop-color="#fff" stop-opacity="0"/>
    </linearGradient>
    <linearGradient id="e">
      <stop offset="0" stop-color="#fff"/>
      <stop offset="1" stop-color="#fff" stop-opacity="0"/>
    </linearGradient>
    <linearGradient id="d">
      <stop offset="0" stop-color="#fff"/>
      <stop offset="1" stop-color="#fff" stop-opacity="0"/>
    </linearGradient>
    <linearGradient id="c">
      <stop offset="0" stop-color="#fff"/>
      <stop offset="1" stop-color="#fff" stop-opacity="0"/>
    </linearGradient>
    <linearGradient id="b">
      <stop offset="0"/>
      <stop offset="1" stop-opacity="0"/>
    </linearGradient>
    <linearGradient id="a">
      <stop offset="0"/>
      <stop offset="1" stop-opacity="0"/>
    </linearGradient>
    <linearGradient id="x">
      <stop offset="0"/>
      <stop offset="1" stop-color="#838383"/>
    </linearGradient>
    <linearGradient id="w">
      <stop offset="0" stop-color="#444"/>
      <stop offset="1" stop-color="#1a1a1a"/>
    </linearGradient>
    <linearGradient xlink:href="#a" id="aA" x1="1320.9802" x2="1386.9783" y1="945.81995" y2="945.81995" gradientUnits="userSpaceOnUse"/>
    <linearGradient xlink:href="#b" id="aB" x1="1429.0342" x2="1433.1307" y1="926.77704" y2="961.58679" gradientUnits="userSpaceOnUse"/>
    <linearGradient xlink:href="#c" id="aE" x1="1056.7963" x2="1056.7667" y1="1072.6683" y2="1099.3658" gradientUnits="userSpaceOnUse"/>
    <linearGradient xlink:href="#d" id="aF" x1="1432.4893" x2="1430.5262" y1="722.83044" y2="731.71936" gradientUnits="userSpaceOnUse"/>
    <linearGradient xlink:href="#e" id="aG" x1="761.20099" x2="762.20105" y1="493.97278" y2="513.21948" gradientUnits="userSpaceOnUse"/>
    <linearGradient xlink:href="#f" id="aw" x1="1018.6476" x2="738.21234" y1="1015.6141" y2="1036.4464" gradientUnits="userSpaceOnUse"/>
    <linearGradient xlink:href="#g" id="av" x1="843.80371" x2="1013.5178" y1="843.58563" y2="957.65405" gradientUnits="userSpaceOnUse"/>
    <linearGradient xlink:href="#g" id="aI" x1="1078.9948" x2="1061.1091" y1="857.18323" y2="993.91412" gradientUnits="userSpaceOnUse"/>
    <linearGradient xlink:href="#f" id="aJ" x1="1508.6393" x2="1509.1298" y1="876.52783" y2="865.9519" gradientUnits="userSpaceOnUse"/>
    <linearGradient xlink:href="#h" id="as" x1="1342.8859" x2="1342.5804" y1="912.97028" y2="901.80817" gradientUnits="userSpaceOnUse"/>
    <linearGradient xlink:href="#h" id="at" x1="1334.408" x2="1331.8456" y1="980.07599" y2="934.35767" gradientUnits="userSpaceOnUse"/>
    <linearGradient xlink:href="#h" id="au" x1="1359.1477" x2="1357.1113" y1="1026.5591" y2="985.00159" gradientUnits="userSpaceOnUse"/>
    <linearGradient xlink:href="#g" id="aD" x1="1096.1233" x2="1097.1233" y1="1032.8796" y2="1099.9071" gradientUnits="userSpaceOnUse"/>
    <linearGradient xlink:href="#i" id="aN" x1="1696.7532" x2="1711.4489" y1="971.52271" y2="959.42963" gradientUnits="userSpaceOnUse"/>
    <linearGradient xlink:href="#j" id="aO" x1="1726.933" x2="1731.5275" y1="997.18726" y2="1039.8396" gradientUnits="userSpaceOnUse"/>
    <linearGradient xlink:href="#i" id="aP" x1="371.5" x2="371" y1="764.23352" y2="771.21472" gradientUnits="userSpaceOnUse"/>
    <linearGradient xlink:href="#c" id="aK" x1="1833" x2="1751.75" y1="1099.0709" y2="1106.5709" gradientUnits="userSpaceOnUse"/>
    <linearGradient xlink:href="#c" id="aU" x1="373.5" x2="349" y1="1063.9459" y2="924.44592" gradientUnits="userSpaceOnUse"/>
    <linearGradient xlink:href="#c" id="aV" x1="1453.5" x2="1445" y1="722.44592" y2="761.44592" gradientUnits="userSpaceOnUse"/>
    <linearGradient xlink:href="#c" id="aW" x1="825" x2="867.25" y1="622.57092" y2="767.32092" gradientUnits="userSpaceOnUse"/>
    <linearGradient xlink:href="#k" id="aY" x1="516.98242" x2="467.48169" y1="647.17163" y2="607.80182" gradientUnits="userSpaceOnUse"/>
    <linearGradient xlink:href="#l" id="bi" x1="1499.0664" x2="1497.9152" y1="702.72546" y2="699.60101" gradientUnits="userSpaceOnUse"/>
    <linearGradient xlink:href="#m" id="L" x1="515.80304" x2="547.44183" y1="1185.6029" y2="1185.6029" gradientUnits="userSpaceOnUse"/>
    <linearGradient xlink:href="#n" id="N" x1="565.69208" x2="553.52325" y1="1051.2222" y2="1046.6178" gradientUnits="userSpaceOnUse"/>
    <linearGradient xlink:href="#m" id="Q" x1="596.42963" x2="598.66296" y1="1071.0377" y2="1081.7267" gradientUnits="userSpaceOnUse"/>
    <linearGradient xlink:href="#l" id="R" x1="590.11627" x2="595.23254" y1="1106.9402" y2="1096.1262" gradientUnits="userSpaceOnUse"/>
    <linearGradient xlink:href="#o" id="S" x1="592.32526" x2="582.95197" y1="1097.6774" y2="1085.8375" gradientUnits="userSpaceOnUse"/>
    <linearGradient xlink:href="#p" id="V" x1="614.84882" x2="611.27905" y1="1142.5796" y2="1161.8818" gradientUnits="userSpaceOnUse"/>
    <linearGradient xlink:href="#q" id="ac" x1="563.95349" x2="564.1861" y1="1331.8098" y2="1319.0192" gradientUnits="userSpaceOnUse"/>
    <linearGradient xlink:href="#n" id="ae" x1="574.65118" x2="553.95349" y1="1223.3936" y2="1284.0912" gradientUnits="userSpaceOnUse"/>
    <linearGradient xlink:href="#c" id="J" x1="568.14545" x2="570.13208" y1="963.11169" y2="1077.4576" gradientUnits="userSpaceOnUse"/>
    <linearGradient xlink:href="#q" id="K" x1="511.7793" x2="529.28021" y1="1131.0332" y2="1142.8732" gradientUnits="userSpaceOnUse"/>
    <linearGradient xlink:href="#q" id="aj" x1="590.12305" x2="582.78754" y1="1158.8503" y2="1147.3394" gradientUnits="userSpaceOnUse"/>
    <linearGradient xlink:href="#r" id="ah" x1="575.60956" x2="561.49084" y1="1126.7688" y2="1134.7784" gradientUnits="userSpaceOnUse"/>
    <linearGradient xlink:href="#s" id="ak" x1="564.74902" x2="561.76239" y1="1157.3141" y2="1160.3008" gradientUnits="userSpaceOnUse"/>
    <linearGradient xlink:href="#t" id="ai" x1="576.55988" x2="568.55023" y1="1169.9396" y2="1183.7867" gradientUnits="userSpaceOnUse"/>
    <linearGradient xlink:href="#u" id="F" x1="317.44284" x2="342.06454" y1="1061.334" y2="1052.6455" gradientUnits="userSpaceOnUse"/>
    <linearGradient xlink:href="#v" id="G" x1="327.17432" x2="321.60828" y1="1157.7214" y2="1085.6344" gradientUnits="userSpaceOnUse"/>
    <linearGradient xlink:href="#q" id="H" x1="321.33676" x2="324.05191" y1="1072.5339" y2="1093.4406" gradientUnits="userSpaceOnUse"/>
    <linearGradient xlink:href="#q" id="I" x1="331.99368" x2="330.52521" y1="1075.7241" y2="1069.7939" gradientUnits="userSpaceOnUse"/>
    <filter id="ay" width="1.3764659" height="1.6791149" x="-.18823294" y="-.33955747">
      <feGaussianBlur stdDeviation="2.5769993"/>
    </filter>
    <filter id="aC" width="2.2065582" height="2.0310595" x="-.60327911" y="-.51552975">
      <feGaussianBlur stdDeviation="16.707825"/>
    </filter>
    <filter id="aT">
      <feGaussianBlur stdDeviation=".56100918"/>
    </filter>
    <filter id="aZ" width="2.0040367" height="2.0913441" x="-.50201833" y="-.54567212">
      <feGaussianBlur stdDeviation="3.7095282"/>
    </filter>
    <filter id="bb" width="1.0311719" height="1.2351213" x="-.01558593" y="-.1175606">
      <feGaussianBlur stdDeviation=".23940138"/>
    </filter>
    <filter id="bc" width="1.2254977" height="1.3917658" x="-.11274887" y="-.19588292">
      <feGaussianBlur stdDeviation=".38866273"/>
    </filter>
    <filter id="bd" width="1.0812584" height="1.2376013" x="-.0406292" y="-.11880063">
      <feGaussianBlur stdDeviation=".32262142"/>
    </filter>
    <filter id="bg" width="1.6356617" height="1.8785192" x="-.31783086" y="-.43925959">
      <feGaussianBlur stdDeviation="1.2921572"/>
    </filter>
    <filter id="bh" width="1.3558285" height="1.4762887" x="-.17791423" y="-.23814434">
      <feGaussianBlur stdDeviation=".23056651"/>
    </filter>
    <filter id="ao" width="1.3643703" height="1.278832" x="-.18218514" y="-.13941596">
      <feGaussianBlur stdDeviation=".20760244"/>
    </filter>
    <filter id="ap" width="1.6378772" height="1.5269376" x="-.31893858" y="-.2634688">
      <feGaussianBlur stdDeviation=".20760244"/>
    </filter>
    <filter id="aq" width="1.087862" height="1.2661409" x="-.04393101" y="-.13307047">
      <feGaussianBlur stdDeviation=".08685221"/>
    </filter>
    <filter id="ar">
      <feGaussianBlur stdDeviation=".505588"/>
    </filter>
    <filter id="M" width="1.0763468" height="1.4900141" x="-.03817338" y="-.24500704">
      <feGaussianBlur stdDeviation=".470046"/>
    </filter>
    <filter id="T">
      <feGaussianBlur stdDeviation=".5443392"/>
    </filter>
    <filter id="U" width="1.3918959" height="1.0496114" x="-.19594793" y="-.02480573">
      <feGaussianBlur stdDeviation="1.1422972"/>
    </filter>
    <filter id="W" width="1.4232011" height="1.9987468" x="-.21160057" y="-.49937332">
      <feGaussianBlur stdDeviation="1.2097319"/>
    </filter>
    <filter id="X" width="1.379235" height="1.0361784" x="-.18961748" y="-.01808914">
      <feGaussianBlur stdDeviation=".88745408"/>
    </filter>
    <filter id="Y" width="1.2763797" height="1.03751" x="-.13818987" y="-.01875499">
      <feGaussianBlur stdDeviation=".80744622"/>
    </filter>
    <filter id="Z">
      <feGaussianBlur stdDeviation=".42671303"/>
    </filter>
    <filter id="aa">
      <feGaussianBlur stdDeviation=".28163016"/>
    </filter>
    <filter id="ab">
      <feGaussianBlur stdDeviation=".3673251"/>
    </filter>
    <filter id="ad">
      <feGaussianBlur stdDeviation=".54219163"/>
    </filter>
    <filter id="af">
      <feGaussianBlur stdDeviation=".42292531"/>
    </filter>
    <filter id="al">
      <feGaussianBlur stdDeviation=".08775358"/>
    </filter>
    <filter id="ag">
      <feGaussianBlur stdDeviation=".13029027"/>
    </filter>
    <filter id="am">
      <feGaussianBlur stdDeviation=".03482788"/>
    </filter>
    <filter id="E">
      <feGaussianBlur stdDeviation=".06499286"/>
    </filter>
    <filter id="aS" width="1.573079" height="1.573079" x="-.28653952" y="-.28653952">
      <feGaussianBlur stdDeviation="11.580972"/>
    </filter>
    <filter id="D" width="1.1581582" height="1.5168518" x="-.07907908" y="-.25842589">
      <feGaussianBlur stdDeviation="69.13026"/>
    </filter>
    <radialGradient xlink:href="#w" id="ax" cx="814.28571" cy="946.62451" r="26.428572" fx="814.28571" fy="946.62451" gradientUnits="userSpaceOnUse"/>
    <radialGradient xlink:href="#x" id="az" cx="911.07141" cy="964.48163" r="43.639568" fx="911.07141" fy="964.48163" gradientUnits="userSpaceOnUse"/>
    <radialGradient xlink:href="#f" id="aH" cx="656.35083" cy="726.59851" r="97.721054" fx="656.35083" fy="726.59851" gradientTransform="matrix(.9898 .55445 -.0984 .17565 86.869379 256.30342)" gradientUnits="userSpaceOnUse"/>
    <radialGradient xlink:href="#w" id="aM" cx="814.28571" cy="946.62451" r="26.428572" fx="814.28571" fy="946.62451" gradientUnits="userSpaceOnUse"/>
    <radialGradient xlink:href="#c" id="aQ" cx="1022.4763" cy="1182.3661" r="32.319801" fx="1022.4763" fy="1182.3661" gradientTransform="matrix(.6662 -.95513 .29057 .20267 -2.25541 1919.3353)" gradientUnits="userSpaceOnUse"/>
    <radialGradient xlink:href="#c" id="aR" cx="635.71625" cy="882.73822" r="48.5" fx="635.71625" fy="882.73822" gradientTransform="matrix(.61399 -.33136 .4812 .7422 -187.58795 432.17592)" gradientUnits="userSpaceOnUse"/>
    <radialGradient xlink:href="#y" id="ba" cx="461.90854" cy="673.51141" r="32.54113" fx="461.90854" fy="673.51141" gradientTransform="matrix(.91522 0 0 .13487 43.423648 582.67145)" gradientUnits="userSpaceOnUse"/>
    <radialGradient xlink:href="#z" id="aX" cx="415.21555" cy="679.78137" r="39.731743" fx="415.21555" fy="679.78137" gradientTransform="matrix(1.21462 0 0 .28086 -89.112672 488.85946)" gradientUnits="userSpaceOnUse"/>
    <radialGradient xlink:href="#c" id="be" cx="489.32645" cy="712.30261" r="25.787624" fx="489.32645" fy="712.30261" gradientTransform="matrix(.6541 .17734 -.02056 .07585 183.90569 576.22048)" gradientUnits="userSpaceOnUse"/>
    <radialGradient xlink:href="#A" id="bf" cx="518.69897" cy="680.64514" r="10.960155" fx="518.69897" fy="680.64514" gradientTransform="matrix(.80449 -.91072 .40115 .35436 -170.418 911.23224)" gradientUnits="userSpaceOnUse"/>
    <radialGradient xlink:href="#z" id="an" cx="415.21555" cy="679.78137" r="39.731743" fx="415.21555" fy="679.78137" gradientTransform="matrix(-1.21462 0 0 .28086 2025.4676 485.46771)" gradientUnits="userSpaceOnUse"/>
    <radialGradient xlink:href="#B" id="O" cx="556.612" cy="989.97839" r="12.086595" fx="556.612" fy="989.97839" gradientTransform="matrix(.93684 .34975 -.57143 1.53061 603.59898 -721.54603)" gradientUnits="userSpaceOnUse"/>
    <radialGradient xlink:href="#C" id="P" cx="554.92047" cy="1086.8322" r="11.16279" fx="554.92047" fy="1086.8322" gradientTransform="matrix(.99287 .4791 -.20466 .42414 226.16626 360.54766)" gradientUnits="userSpaceOnUse"/>
    <pattern id="aL" width="19.980189" height="16.016539" patternTransform="translate(1146.0301 1725.2927)" patternUnits="userSpaceOnUse">
      <path fill-rule="evenodd" stroke-linecap="round" stroke-linejoin="round" stroke-width="2.9000001" d="M995.39121 1743.7911a11.056064 11.056064 0 1 1 0-.0062" transform="translate(-348.54648 -641.1036) scale(.37023)"/>
      <path fill-rule="evenodd" stroke-linecap="round" stroke-linejoin="round" stroke-width="2.9000001" d="M995.39121 1743.7911a11.056064 11.056064 0 1 1 0-.0062" transform="translate(-352.15235 -633.6858) scale(.37023)"/>
      <path fill-rule="evenodd" stroke-linecap="round" stroke-linejoin="round" stroke-width="2.9000001" d="M995.39121 1743.7911a11.056064 11.056064 0 1 1 0-.0062" transform="translate(-356.89151 -641.5157) scale(.37023)"/>
      <path fill-rule="evenodd" stroke-linecap="round" stroke-linejoin="round" stroke-width="2.9000001" d="M995.39121 1743.7911a11.056064 11.056064 0 1 1 0-.0062" transform="translate(-360.34003 -633.968) scale(.37023)"/>
    </pattern>
  </defs>
  <g fill-rule="evenodd" transform="translate(-29.843748 -396.14442)">
    <path d="M-125.94502 607.43476 27.64647 963.76701l1511.34023-6.14367 476.1336-39.93378-909.2616-509.92374-1231.80372 199.66894z" filter="url(#D)" transform="translate(312.21826 492.24)"/>
    <path d="m500.95392 874.43643-12.01088 294.26667 147.13331 55.0498-29.0263-287.26027-41.03718-64.058-65.05895 2.0018z"/>
    <path fill="#292929" stroke="#000" stroke-width="1.5" d="M572.09302 925.71918c-31.0808 4.88819-40.49753 31.44046-51.16279 56.74419-11.66573 39.08163-24.39219 77.25413-24.18604 126.51163-1.06708 31.938-3.79123 63.8759.93023 95.8139 2.7614 45.5814 6.24523 91.1628 27.90697 136.7442 10.12145 15.6719 20.64682 31.0552 42.7907 38.1396l105.11628 1.8604c21.14168-24.9788 32.85097-53.4948 40-83.7209 15.05915-174.9455-88.68217-248.062-133.02325-372.09302h-8.3721z"/>
    <path fill="#292929" stroke="#000" stroke-width="1.5" d="M610.08516 1332.1738c4.07167 6.912 22.7947 10.3452 33.87534 14.1421m-27.46205-22.1998c4.07167 6.912 22.7947 10.3452 33.87534 14.1421m-27.62649-29.5997c4.07167 6.912 22.7947 10.3452 33.87534 14.1421m-29.27093-32.8887c4.07167 6.912 22.7947 10.3452 33.87534 14.1421m-27.95537-32.2309c4.07167 6.912 22.7947 10.3452 33.87534 14.1421m-61.50184 54.9241c4.07167 6.912 22.7947 10.3452 33.87534 14.1421m-38.09442-7.7617c3.42538 7.254 21.75802 12.3778 32.4469 17.1679m-37.29734-7.8059c3.63776 7.1499 22.11348 11.731 32.93894 16.2039m-40.64264-7.9375c4.07167 6.912 22.7947 10.3452 33.87534 14.1421m-42.87525-10.4592c2.77982 7.5251 3.49376 6.0056 13.72426 11.7095"/>
    <path stroke="#000" d="m539.72455 1026.0789.4512 236.1745 54.4664 45.3587 33.60528-85.2171 24.10818-198.2885-112.63106 1.9724z"/>
    <path d="m316.39846 929.76332 39.54981 24.57464-23.4227-95.22672-9.59947 2.30387-6.52764 68.34821z"/>
    <path fill="#292929" stroke="#000" d="M326.38191 1188.949c-13.62752-48.2847-14.75509-126.4746-13.05528-152.8236 3.01547-39.93378.13602-79.86755 9.21549-119.80133 9.67946-22.85309 15.28779-8.25178 21.50281.76796l84.41411 207.20877s19.80753-8.9242 0 63.2907c0 0-7.31797 11.558-12.02379 16.7166l-70.85441 1.5359c-8.71148-3.7051-14.82782-9.5729-19.19893-16.895z"/>
    <path fill="#a4a4a4" fill-opacity=".80784314" stroke="#000" d="M325.17539 916.42055c-7.41164 26.68067-6.50828 96.61065-7.62499 150.42315.43547 30.5794 2.624 61.351 6.91161 92.5389l3.07183 7.2956c2.17588 4.581 4.35176 1.6876 6.52764-1.5359 3.07183-36.99 13.69202-72.7219 9.21549-110.9699.06323-35.7333 3.00624-71.19509-3.22688-106.52113-.64473-7.21285-2.08173-13.88268-4.35953-21.09554-1.3583-7.60384-8.15528-24.71031-10.51517-10.13518z"/>
    <path fill="#292929" stroke="#000" stroke-width="1.5" d="M1756.6318 857.36377c31.0808 4.8882 40.4975 31.4404 51.1628 56.7442 11.6657 39.0816 24.3922 77.2541 24.186 126.51163 1.0671 31.938 3.7913 63.8759-.9302 95.8139-2.7614 45.5814-6.2452 91.1628-27.907 136.7442-10.1214 15.6719-20.6468 31.0552-42.7907 38.1396l-105.1163 1.8604c-21.1416-24.9788-32.8509-53.4948-40-83.7209-15.0591-174.9455 88.6822-248.06203 133.0233-372.09303h8.3721z"/>
  </g>
  <g transform="translate(-29.843748 -396.14442)">
    <path fill="#a1a1a1" fill-rule="evenodd" d="M571.25 960.90625c-.68126-.01143-1.39996.03428-2.125.125-35.12658 3.51946-46.00654 58.05065-56.71875 112.96875l-3.28125 22.8438c-10.5276 72.012 1.02335 127.8063 12.96875 184.8437l4.125 11.5c7.81023 12.7667 11.48461 27.4686 25.15625 37.5 17.97927 10.8544 33.65227.9545 47.6875-23.6875 5.25413-9.7712 9.12182-20.1034 12.1875-30.75l-1.25-.5312-3 2.7812-4.65625 14.1875c-.93241 3.1857-1.7851 3.1098-2.5625.25-6.56248-29.845-10.38859-59.6865-13.25-89.5312v-14.4375c1.99604-13.8955 3.95591-27.8089 5.34375-42.3125 4.26387-10.277 12.67201-18.4897 20.46875-27l-2.75-20.1563-.125-.625-18.53125 13.0313h-3.3125c-4.25393-7.7544-7.12743-15.9419-9.53125-24.3125l-2.625-20.7188c-3.02667-33.8636-2.20499-66.6826-1.96875-99.65625 1.30279-1.73788 6.94446 2.29666 11.625 5.0625l.28125-.40625c.04231-1.60211.04986-3.2432-1.625-6.5625-3.97791-1.92541-7.7624-4.32626-12.53125-4.40625zm13.875 11.375-1.34375 1.90625 25.6875 124.6875.1875-.125c-6.47352-42.5964-12.94364-85.1579-23.65625-125.9375-.28211-.16017-.58408-.35934-.875-.53125zm27.21875 147.37505.03125.2187.1875-.4375c-.06931.0758-.14934.1429-.21875.2188zM565.375 967.375v84l.5625 31.2813c-.10714.1802-.21222.309-.3125.4687l2.0625 10.75c-4.77914 15.3166-10.26229 19.3953-16.28125 14.875-12.55814-7.0248-25.09808-16.993-37.65625-30.2187 6.69684-49.0686 19.07572-91.63346 51.625-111.1563zm0 84-.09375-5.2187.09375 5.2187zm-53.5 51.3125 34.40625 43.7188 1.40625 45.125c3.94036 8.0921-14.75212 54.7003-22.3125 82.3437-16.10831-57.0543-19.70966-114.1332-13.5-171.1875zm57.6875 98.1563h2.78125c1.86483.607 2.60477 4.5779 3.25 8.8437 1.20389 8.803 2.65761 17.6031 4.28125 26.4063l15 68.9062c-.03255-.03-.0612-.0638-.09375-.0937.11719.5099.2267 1.0212.34375 1.5312-16.87498 27.2089-32.09951 28.1957-46.5 15.8125-8.3362-10.1049-15.06057-20.4324-19.0625-31.1562 9.4139-30.1167 17.66455-61.2756 33-86.0625 1.8498-4.7258 4.5855-3.4147 7-4.1875z"/>
    <path fill-opacity=".80784314" fill-rule="evenodd" d="M323.98403 1079.9362c.46185-1.7892 1.28532-2.4936 2.15067-3.0723 5.66831-1.4425 11.32368-2.8074 16.59093-1.8435-.78122 23.1454-7.86563 46.2907-12.28958 69.4361l-6.45202-64.5203z"/>
    <path fill-opacity=".80526315" fill-rule="evenodd" d="M327.98885 964.9465c-4.26721 27.3324-3.67787 54.6648-4.61573 81.9972 5.9372-3.4936 10.82089-5.9336 18.73446-11.4036v-17.3769c-6.02268-17.7389-12.30894-35.4778-14.11873-53.2167z"/>
    <path fill-opacity=".80784314" fill-rule="evenodd" d="M332.06156 945.94052c1.35552-1.44602 2.89821-3.07922 4.61574-4.88725.99555 9.59349 1.9911 19.18699 2.98665 28.78048-2.42042-8.41925-4.82974-16.88291-7.60239-23.89323z"/>
    <path fill="#fff" fill-opacity=".6157895" fill-rule="evenodd" d="m332.19732 945.66901-1.08605 14.93326 10.31753 35.16106-1.62908-24.84353-7.6024-25.25079z"/>
    <path fill="none" stroke="#000" stroke-width=".40000001" d="m340.75001 996.71363-4.47998-15.06903"/>
    <path fill="none" stroke="#fff" d="M320.38646 1071.923c5.99185-4.0084 13.51545-4.5703 20.90658-5.4303" filter="url(#E)"/>
    <path fill="url(#F)" fill-rule="evenodd" d="m316.85678 1057.2612 25.52231-17.1053-.13575 24.4362c-12.85327-.2671-18.19155 3.4444-25.2508 6.2448l-.13576-13.5757z"/>
    <path fill="url(#G)" fill-rule="evenodd" d="m321.47252 1080.2042 2.8509 19.6847 5.15876 45.4786-2.03635 15.6121c-3.78675-11.9163-9.65618-52.4318-5.97331-80.7754z"/>
    <path fill="url(#H)" fill-rule="evenodd" d="m321.33676 1079.2539 2.71514 17.9199-.27151-18.3272-2.44363.4073z"/>
    <path fill="none" stroke="#000" d="M341.29304 1065.9497c-7.5081.4545-15.05182.6775-21.85687 5.7018-.37783 27.7444 1.7813 55.2936 6.10906 82.676"/>
    <path fill="url(#I)" fill-rule="evenodd" d="m324.0519 1077.8963-2.57938-4.8873c6.50685-5.2704 13.84521-4.7202 21.04233-5.1587l-.27151 6.7878c-6.06381.3835-12.12763.4376-18.19144 3.2582z"/>
  </g>
  <g fill-rule="evenodd" transform="translate(-29.843748 -396.14442)">
    <path fill="url(#J)" d="M517.01017 1046.0422c2.97363-21.4684 11.09639-41.006 21.04876-59.85738 3.79093-10.98355 11.28063-16.78885 19.40432-21.70654 6.24723-3.70968 12.82358-9.06316 23.35097-1.64443 2.7006-.139 4.42018 2.67067 6.24885 4.27553l.98666 6.24885-3.28887-1.31555-11.51104-2.95998 3.61776 107.8749-13.48436-.9867.32888-106.55931-40.1242 79.26171-6.57773-2.6311z"/>
    <path fill="url(#K)" d="M508.788 1097.3486s2.63109-24.6665 3.94664-26.311c1.31555-1.6444 39.13754 35.8487 39.13754 35.8487l-9.53772 39.1375-31.57314-44.0708 14.47102 173.3234-2.6311.6578c-8.49661-29.9639-20.89167-92.4659-13.81324-178.5856z"/>
  </g>
  <g transform="translate(-29.843748 -396.14442)">
    <path fill="none" stroke="#000" d="m372.09303 1083.8587 93.95348 40.9302 1.86047-330.2325-60.46512-1.86047-35.34883 291.16277z"/>
    <path fill="#a1a1a1" fill-rule="evenodd" stroke="#000" d="M565.125 967.59375c-32.54928 19.52284-44.92816 62.08775-51.625 111.15625 12.55817 13.226 25.09811 23.194 37.65625 30.2188 6.01896 4.5203 11.50211.4416 16.28125-14.875l-2.0625-10.75c-.60037.9556-1.12307 1.6833-2 3.4687-6.60341-2.82-12.31515-6.1283-16.75-10.1875-.79655-1.2059-1.8947-2.4191 0-3.625l3.9375-1.9687c1.92304-1.2144 3.69153-2.4594 1.96875-4.2813 5.98709-12.5501 5.8556-14.573 7.90625-20.375h4.59375l.09375 5.2188v-84.00005zm0 84.00005V1082l.25 1.3438c.10028-.1597.20536-.2886.3125-.4688l-.5625-31.2812zm-17.68314 140.1719-1.39535-45.1163-34.41861-43.7209c-6.20966 57.0543-2.61993 114.1085 13.48838 171.1628 7.56037-27.6433 26.26594-74.2335 22.32558-82.3256zm21.87064 9.2968c-2.4145.7729-5.1502-.5383-7 4.1875-15.33545 24.7871-23.5861 55.9459-33 86.0625 4.00193 10.7239 10.7263 21.0514 19.0625 31.1563 14.40049 12.3832 29.62502 11.3964 46.5-15.8125-.11705-.51-.22656-1.0214-.34375-1.5313-10.1619-9.3589-20.14958-18.6459-30.3125-26.7187-4.26823-4.44-.85098-8.8726-.84375-13.3125 4.53703-11.452 9.18824-22.262 15.46875-32.4063l.78125 3.625c-1.62364-8.803-3.07736-17.6032-4.28125-26.4062-.64523-4.2658-1.38517-8.2368-3.25-8.8438h-2.78125zm10.3125 35.25c4.23018 22.9351 9.63515 45.8773 14.90625 68.8125.03255.03.0612.0638.09375.0938l-15-68.9063zm19.90988 56.8485c-6.56245-29.8449-10.3944-59.6899-13.25581-89.5348v-14.4186c1.99602-13.8955 3.96099-27.822 5.34883-42.3256 4.30186-10.3684 12.84327-18.6171 20.69768-27.2093l6.51163 44.186c-1.31985 8.4557-3.18546 18.5486-5.11628 28.8372-1.26737 16.8644 1.93833 35.2197 4.18604 53.2558l-8.13953 30-3.02326 2.7907-4.65116 14.1861c-.93241 3.1857-1.78074 3.0923-2.55814.2325z"/>
    <path fill-opacity=".3" fill-rule="evenodd" d="m592.81859 1082.7131 5.26219 12.6622 1.80888.3288 8.22217-5.7555-1.64444-10.5244-13.6488 3.2889z"/>
    <path fill="#a1a1a1" fill-rule="evenodd" stroke="#000" d="M573.24982 967.43827c-.23624 32.97373-1.05335 65.78913 1.97332 99.65273l2.6311 20.7199c2.40383 8.371 5.28379 16.5833 9.53772 24.3376h3.28886l18.74656-13.1555c-6.47353-42.5964-12.96725-85.1841-23.67986-125.96366-4.82107-2.73725-11.11394-7.4369-12.4977-5.59107z"/>
    <path fill="url(#L)" fill-rule="evenodd" d="M517.44186 1110.6029c-2.94594 49.3798-3.37169 100.6201 11.39534 150 7.63312-21.0894 15.69932-43.3036 18.60466-66.7442-.54264-16.6288-1.08527-32.2753-1.62791-47.6744l-28.37209-35.5814z"/>
    <path fill="none" d="M533.02323 1188.161a6.6279068 1.5116279 0 1 1 0-.0008"/>
    <path fill-rule="evenodd" d="M537.33530264 1187.21604315a9.88739388 5.89881025-14.58318077 1 1-.00036274-.00324228"/>
    <path fill="#fff" fill-rule="evenodd" d="m523.5879 1066.1043 28.94205.3289c.35521 1.567 1.74632 4.0917-4.60442 4.2755l-24.33763-.3089c-.42829-1.5297-.16622-3.063 0-4.2955z" filter="url(#M)"/>
    <path fill-opacity=".37894736" fill-rule="evenodd" d="m516.6279 1077.5796 7.7907-7.093c9.97936 9.5977 21.19319 17.7553 34.88372 23.0233l-.34883 16.279-1.74419.6977-1.39535.1163h-1.04651l-.93023-.1163-1.16279-.8139c-14.68458-8.4912-28.25177-18.3029-39.53489-30.814l3.48837-1.2791z"/>
    <path fill-opacity=".4842105" fill-rule="evenodd" d="m513.72093 1078.5099 3.48837-21.9768 2.55814-12.6744 2.55814-9.8837 2.55814-8.4884 4.53488-12.4418 3.3721-7.907 6.86046-12.67443 5.69767-7.32558 5.23256-5.93024 5.23256-5 7.7907-5.58139 1.74418-.23256-.11627 10.5814c-31.64954 25.1334-36.31001 59.4199-41.51163 92.5581l-6.86047 6.6279-3.13953.3489z"/>
    <path fill="url(#N)" fill-rule="evenodd" d="m552.3655 1066.2688-6.57773-.9867 19.40432-51.7997-.16444 22.8577-12.66215 29.9287z"/>
    <path fill="url(#O)" fill-rule="evenodd" d="m541.18335 1006.0825 24.17319 6.0844-.32889-34.03981c-9.01675 7.71549-16.56117 17.63948-23.8443 27.95541z"/>
    <path fill="url(#P)" fill-rule="evenodd" d="m547.2093 1078.2773-5.81395 5.1163c4.26154 4.8576 11.32795 7.5114 18.60465 10l3.72093-6.5116c-5.51064-2.8742-14.87551-9.1745-16.51163-8.6047z"/>
    <path fill-opacity=".43684214" fill-rule="evenodd" d="M573.51059 966.63429c2.55785 5.1876 5.47234 10.22236 9.11251 14.94611l1.38366-2.72742 4.37186 3.87853-3.12443-10.35994c-3.86731-2.10132-7.59283-4.76979-11.7436-5.73728z"/>
    <path fill="url(#Q)" fill-rule="evenodd" d="m589.69416 1071.0376 14.55324-1.6444 2.05555 11.8399-13.31992 2.7956-2.30221-6.2489-.98666-6.7422z"/>
    <path fill-opacity=".44736843" fill-rule="evenodd" d="M583.95349 986.64941c.85271-5.02756 1.70543-1.32054 2.55814-1.39534 6.29195 8.41937 13.19394 54.16923 18.37209 84.18603l-15.5814 2.7907c-3.40849-28.5271-3.94365-57.0543-5.34883-85.58139z"/>
    <path fill="url(#R)" fill-rule="evenodd" d="m590.81395 1086.3006-4.53488 5.8139L585 1098.5099l3.25581 9.6511c1.195 1.4434 2.32308 2.5857 2.90698 1.2791l4.06977-15-4.41861-8.1395z"/>
    <path fill-opacity=".21052629" fill-rule="evenodd" d="m591.00971 1109.8463 4.11109-14.1422 3.61775.6578c3.32695-1.7708 6.3173-3.8782 9.20884-6.0844l1.47999 8.7155-17.92434 12.4977-.49333-1.6444z"/>
    <path fill="url(#S)" fill-rule="evenodd" d="m584.43197 1098.4997-3.12442-9.2088-.98666-6.4133 9.53772-.8223 1.31555 4.44c-4.99449 2.1701-5.51994 7.3195-6.74219 12.0044z"/>
    <path fill="none" stroke="#fff" d="M574.23648 967.76715c.84657 39.68565.77485 79.37135 4.9333 119.05705l8.71551 23.5154" filter="url(#T)"/>
    <path fill="none" stroke="#fff" d="M583.28087 984.70483c.93265 29.43537 1.47614 58.87077 4.9333 88.30617 2.24742 7.0711 4.1398 14.1421 8.05773 21.2132" filter="url(#U)"/>
    <path fill="url(#V)" fill-rule="evenodd" d="M604.18604 1158.5099c3.14771-7.1569 6.85901-13.3746 11.86047-17.4419l3.25581 20.6977-1.6279 4.186-14.41861-2.3255.93023-5.1163z"/>
    <path fill-rule="evenodd" d="m600.69767 1186.4169 13.72093-1.3954-.93023 5.814h-12.55814l-.23256-4.4186z" filter="url(#W)"/>
    <path fill-opacity=".30526315" fill-rule="evenodd" d="m601.39535 1184.0913 2.55814-24.4186 14.88372 1.8604-3.95349 23.2558-13.48837-.6976z"/>
    <path fill="none" stroke="#fff" d="M603.02326 1158.0448c-1.00037 11.1702-2.4137 21.9274-4.65117 31.8604 1.87858 28.2946 5.25329 56.5891 10.23256 84.8837" filter="url(#X)"/>
    <path fill="none" stroke="#fff" d="M587.90698 1188.975c1.21003 33.7172 6.93864 67.9991 13.02325 102.3256" filter="url(#Y)"/>
    <path fill-opacity=".42631579" fill-rule="evenodd" d="M593.72093 1153.161 590 1186.6494l7.2093 2.5582 3.25582-30.9303-6.74419-5.1163z" filter="url(#Z)"/>
    <path fill="#fff" fill-opacity=".53684238" fill-rule="evenodd" d="m541.86047 1287.8122 23.95348-6.7442 3.95349 2.5582-27.67442 9.7674-.93023-2.5581.69768-3.0233z" filter="url(#aa)"/>
    <path fill-opacity=".55789478" fill-rule="evenodd" d="M570.69768 1282.9285c2.18151 7.2484-5.54471 14.6764 5.11627 24.186 4.38699 5.4732 8.89832 10.4955 18.13954-1.6279l-.93023-3.9535-22.32558-18.6046z" filter="url(#ab)"/>
    <path fill="url(#ac)" fill-rule="evenodd" d="M542.09302 1310.8355c5.30663 5.3615 7.44656 11.673 18.3721 15.3488 4.90904 2.0393 8.90279.4174 13.25581.2326 9.01562-2.0985 11.89709-8.5785 16.97674-13.4884-4.52357 3.5139-6.67518 7.5022-13.95348 10.4651-7.52209 1.1254-10.9332.1953-14.88372-.4651-10.82248-1.3852-13.3605-7.9481-19.76745-12.093z"/>
    <path fill="none" stroke="#fff" stroke-opacity=".64210528" d="M542.32558 1286.882c6.46919-22.6613 16.25755-44.0779 27.67442-64.8838" filter="url(#ad)"/>
    <path fill="url(#ae)" fill-rule="evenodd" d="M543.95349 1286.6494c7.07849-21.8605 14.72527-43.7209 27.90698-65.5814l5.34883.4651 1.62791 10.2326c-5.1938 11.1139-10.3876 21.2719-15.5814 33.4884l2.7907 15.8139-22.09302 5.5814z"/>
    <path fill="none" stroke="#fff" stroke-opacity=".73157893" d="M530.93023 1290.8355c9.49145-31.0796 20.14291-60.8334 33.95349-86.9768" filter="url(#af)"/>
    <path fill-opacity=".47894736" fill-rule="evenodd" d="M574.72014 1163.4143c.58652 1.8603.55269 3.8445 2.30387 5.4718 1.8417 1.2302 2.37602.8261 3.26382.8639-1.51598-2.5279-2.82214-5.0557-3.07183-7.5836l-2.49586 1.2479z"/>
    <path fill="#fff" fill-rule="evenodd" d="M573.6642 1155.6388c.31818-9.9808-1.64545-20.3961 3.93578-29.3744.99794-2.1675 2.50479-3.6225 3.93578-5.1837 1.3918-.0233 1.57335.9775 1.8239 1.9199-1.49119 1.0405-2.85838 2.1803-3.45581 3.9358-2.94006 7.8475-5.03565 16.5207-3.93578 28.3184-.17068 2.2932.66501 4.7302 1.05594 7.1036-.22984 2.2078-1.23088 1.5878-2.20787 1.056-.50368-2.5919-1.15946-5.1837-1.15194-7.7756z" filter="url(#ag)"/>
    <path fill="url(#ah)" fill-rule="evenodd" stroke="#000" d="m576.86758 1126.2906-7.89329-2.96c-2.85035-.112-5.70071.0623-8.55106 1.9734-.98361 2.5245-2.93248 4.0837-1.64443 8.8799.06432 3.4287 2.83768 5.0514 5.26219 6.9066l9.20883 2.96c-.05757-6.2358.43239-12.3348 3.61776-17.7599z"/>
    <path fill="url(#ai)" fill-rule="evenodd" stroke="#000" d="M576.53869 1169.0459c-5.78449 2.1649-9.22272 4.6651-12.16881 7.2355-2.08407 4.1659-3.053 8.3318-.65778 12.4977 2.30221.336 4.60442.2329 6.90663-.6577 4.20526-1.3661 7.79089-3.6617 11.18215-6.2489l-5.26219-12.8266z"/>
    <path fill-opacity=".87368421" fill-rule="evenodd" d="M576.37425 1154.9038h3.28887l3.26543-3.362-2.76685-4.3774-3.78745 7.7394z"/>
    <path fill="#fff" fill-rule="evenodd" d="M583.44532 1123.6595c-1.69335 7.4953-2.9088 15.3091-3.28887 23.6799l4.27553-1.6444-.98666-22.0355z"/>
    <path fill="url(#aj)" fill-rule="evenodd" stroke="#000" stroke-width=".2" d="m580.24009 1147.2715 8.63186 13.3878 1.1511-3.6178-5.59107-11.511-4.19189 1.741z"/>
    <path fill="none" stroke="#000" d="m584.9253 1145.8594-.82221-21.2132"/>
    <path fill="none" stroke="#000" stroke-width=".69999999" d="m579.80938 1154.225-3.242 3.6622"/>
    <path fill="url(#ak)" fill-rule="evenodd" stroke="#000" d="M559.79032 1158.4359c.68368-1.6206 2.44377-2.1648 4.76221-2.1507 2.1805 1.229 1.90165 2.4579 1.68982 3.6869l-2.91878 2.1507c-1.99977.0863-3.56576-.5215-3.53325-3.6869z"/>
    <path fill="none" stroke="#000" d="m575.15229 1192.6931 4.30136-2.4579"/>
    <path fill="none" stroke="#fff" stroke-linecap="round" d="M573.30886 1194.0757c-.00679-3.3131 3.17568-4.3001 5.53031-5.2232" filter="url(#al)"/>
    <path fill-rule="evenodd" stroke="#000" d="M567.01045 1108.8167c-.43039-1.4812-.0781-2.0008 1.07534-1.5362l4.45497 3.3797c1.49229 1.742 1.24178 2.589-.61448 2.6115-2.06398-1.0596-4.76991-1.4773-4.91583-4.455z"/>
    <path fill-rule="evenodd" d="m578.46048 1126.3615 2.17211-3.3939c.76845-.2699 1.56452-.5949 1.62908.543l-2.17211 2.8509c-.81453.543-1.35757.543-1.62908 0z"/>
    <path fill-opacity=".57368421" fill-rule="evenodd" d="M579.75017 1126.9046c-2.16275 4.3539-3.69134 9.2268-3.86908 15.2048l-.13575 11.8108 1.15393-.1357-.06788-12.897c.21861-4.9842 1.44407-9.537 2.91878-13.9829z"/>
    <path fill="none" stroke="#fff" stroke-linecap="round" d="M580.57582 1120.6967c1.9566-.813 2.83952-3.8501 8.15954 2.3039" filter="url(#am)"/>
    <path fill="#fff" fill-rule="evenodd" d="M583.83959661 1172.62983a1.19993342 1.24793084 0 1 1 0-.000624M585.66353 1170.134c2.02311-4.6339 2.88567-8.4941 4.22377-12.6713l.57597.096-1.8239 11.8073c-1.03848 1.725-1.34397 1.984-1.91989 2.7839-1.15675.1328-1.43437-.6135-1.05595-2.0159z"/>
    <path fill="none" stroke="#000" stroke-width=".30000001" d="M589.04952 1123.5106c2.20085 3.7662 1.74374 7.9755 1.9006 12.0824"/>
  </g>
  <g fill-rule="evenodd" transform="translate(-29.843748 -396.14442)">
    <path d="M891.96875 515.59375c-102.10883-.06398-203.17895 6.2427-303.09375 19.65625 6.68796 60.2857 13.37457 139.04223 20.0625 170.53125l779.4688-6.03125c-58.6054-83.85657-108.2209-140.80917-145.4375-160.5-118.2092-15.3425-235.2767-23.58374-351.00005-23.65625zm312.06255 59.5625c72.1677.65688 151.7392 117.06336 155.8125 121.71875l-87.9375-2.46875-7.0938-2.84375c-18.1316-41.39275-41.5545-78.57722-64.2187-116.34375 1.1414-.04881 2.2919-.07293 3.4375-.0625zm-67.2813 12.125 29.8125 65.96875c-23.5237-.37618-42.944 8.39471-62.7812 16.3125l-2.125-14.1875c4.6635-28.80201 16.2431-51.58729 35.0937-68.09375zm-380.78125 2.78125c39.07762-.04497 78.1469.66129 117.0625 2.0625 1.53645 1.99141 1.01447 5.32364 5.53125 5.53125l82 3.5c9.36317.33439 36.88328.16111 40.125 8.53125-1.41372 6.10027-4.64476 12.80463-8.03125 19.5625-6.51148 5.91409-11.00768 14.99621-13.53125 25.5625l-1.5 14.0625-7.53125.5c-.0917-8.60983-1.99686-16.8942-8.03125-24.84375-8.03537-9.50342-18.42252-11.7765-29.09375-14.03125l-20.5625-.75c-11.3024 1.27077-16.9296 3.9681-23.0625 6.53125-7.35224 4.42273-10.84061 12.17091-13.5625 20.5625-.52956 6.18638-.63821 12.37613-.5 18.5625l-115.375 6-28.5625-.5c4.09602-9.86473 1.93079-19.729-.53125-29.59375-3.74843-11.7396-9.95817-20.00863-17.03125-27.09375-9.14473-7.21917-19.23358-10.96841-32.375-13.03125-14.96283-3.4936-29.32085-1.5537-43.625 4.25-7.69115 2.70157-13.87134 9.20857-21.5625 15.8125l-7.78125-.5-3-36.625c50.03435-2.70743 100.2886-4.00468 150.53125-4.0625zM1150.25 670.625c-10.6517 6.8572-22.2803 13.73653-31.2187 20.59375l-16.6875-.375c13.1592-10.00746 29.0723-16.8318 47.9062-20.21875z"/>
    <path fill="url(#an)" stroke="#000" d="m1523.5564 669.1762-27.3533-1.18831c-6.4945 4.93761-11.1447 11.19714-14.2955 16.80352l41.081-1.0032c3.3869-8.05896 2.1066-8.45177.5678-14.61201z"/>
    <path fill="#fff" d="M1513.64646 676.0134545a1.8809904 1.8809904 0 1 0 0-.00107m-16 .00107a1.8809904 1.8809904 0 1 0 0-.00107"/>
    <path fill="#500000" stroke="#000" d="M1431.0074 668.12243c-2.4428-13.76397-1.5634-22.21278.3535-26.16295 1.7038-3.40124 6.6925-6.66064 13.2582-7.95495 6.9915-.59237 14.1064-.81436 21.5668 0 27.5163 2.99512 45.7783 15.51669 57.2757 35.00179l-26.5165 1.41421c-7.1115 3.13449-7.3864 8.31999-10.2531 12.72792l36.416.70711c-1.8955 9.30033-10.2051 12.18658-18.0312 15.55635-8.9157 2.85141-17.6889 5.98796-27.0468 7.95495l-47.0226-39.24443z"/>
    <path fill="#500000" stroke="#000" d="M829.9375 492.75c-83.36748.24386-166.35579 4.97203-247.53125 18.0625-85.66216 4.43356-132.13587 107.79878-143.53125 119.84375l-44.125 84.9375c-17.78079 12.72406-33.12445 30.34047-47.40625 50.0625-7.97943 30.73519-9.00508 67.2516-26.34375 90.1875L317 930.75c11.21252-191.9947 42.96504 113.9732 48.78125 166.75l127.0625 73.747c1.9211-50.1825 3.21447-104.2816 14.9969-144.6027 3.65198-19.8046 7.76572-36.33359 9.68873-42.79514 2.12767-33.07523 6.1087-60.59039 11.74424-83.14201l8.88263-8.3634c4.74944-3.71923 8.75331-9.3985 18.5625.375 42.85478 83.19118 58.1673 223.47315 65.78125 313.18755L618.625 1245l26.34375 39.5c239.36987 20.7151 482.30805 28.3514 732.18755 10.5313-.0001 0 428.1893-51.652 440.4687-61.25 11.7845-9.2112 53.9916-41.5274 49.4063-47.4063L1856.5 1171.25c27.4789-65.7153 3.0578-61.0241 4.5938-91.5312l-1.9688-70.4688c-14.3079-27.21557-30.0654-50.472-34.25-77.6875-46.4607-108.70479-67.6244-110.34525-92.1875-126.40625-59.8719-44.13271-137.9361-67.05477-218.5937-86.9375-43.1597-4.08141-77.2765-48.81568-113.9063-82.28125-74.3952-69.65353-138.2592-105.36451-196.875-115.25-73.5279-11.62397-147.935-19.74311-223.21875-24.34375-49.99565-2.26807-100.13576-3.74007-150.15625-3.59375zm62.03125 22.53125c115.72335.07251 232.79085 8.345 351.00005 23.6875 37.2168 19.69086 86.8321 76.64343 145.4375 160.5L608.9375 705.5c-6.68794-31.48904-13.37454-110.2768-20.0625-170.5625 99.9148-13.41356 200.98492-19.72023 303.09375-19.65625z"/>
    <path fill="#121b43" fill-opacity=".48947365" stroke="#000" d="M588.87541 535.24099c213.1516-28.6156 431.57179-24.86722 654.08309 4.01278 37.2168 19.69084 86.8579 76.65461 145.4632 160.51118l-779.4824 6.01917c-6.68796-31.48902-13.37593-110.25743-20.06389-170.54313z"/>
    <path fill="#fff" d="M1436.7442 670.6029c.9049-2.0888.3581-3.93564 0-5.81395-1.6088-2.63566-1.9769-5.27132-2.7907-7.90698-.5134-9.62863.1547-10.51462.6977-12.32558.2726 2.78568 0 7.75194 0 11.62791 1.5436 5.18698 3.8471 11.13396 4.4186 15.34884-.7752.02912-1.5504-.09131-2.3256-.93024z"/>
    <path fill="#fff" d="M1452.8578 668.56232c.0825 1.04148-.4329 2.08295 1.0688 3.12443l1.6445-.16445c-.8243-1.84161-1.0586-2.20796-1.48-3.0422-.4111-.39594-.8222-.60679-1.2333.08222z" filter="url(#ao)"/>
    <path fill="#fff" d="m1455.5711 668.89121.1644 1.8911c.6783-.17822 1.1579-.75381 1.3978-1.80888l-1.5622-.08222z" filter="url(#ap)"/>
    <path fill="#fff" d="M1479.9087 680.40225c-.2029.24298-.3388.50828-.0822.90444.5375.17702.9816-.01963 1.4459-.13538.147-.5981.4-.74575.8563-.02907 1.3409.04011 1.6815-.41999 2.3022-.73999-.1221-.23382-.0337-.61802-.6578-.49333-1.5369-.33315-2.6039.27361-3.8644.49333z" filter="url(#aq)"/>
    <path fill="#fff" d="M1513.8663 662.88902c-4.3628-11.08149-19.9427-18.03789-32.5598-25.81762 12.8156 4.43996 25.4242 9.91504 37.1642 25.48874l-4.6044.32888z" filter="url(#ar)"/>
  </g>
  <g fill-rule="evenodd" stroke="#000" transform="translate(-29.843748 -396.14442)">
    <path d="M1037.197 917.35034c-4.7861-14.56755.8781-21.81993 14.5111-23.49413 189.0363-16.76428 379.0249-27.81493 573.5333-11.74707 25.1233 4.60189 27.2135 15.78464 26.9491 27.64016l-11.7471 78.08345c-8.9006 6.30148-18.5403 11.86385-31.0951 14.51105-164.7341 14.4472-329.0885 23.5789-491.9949 12.4381-49.3445-19.75022-57.6542-62.58253-80.1564-97.43156z"/>
    <path fill="url(#as)" d="M1036.4357 910.4403c1.3227 6.05172 3.3047 11.66865 8.3096 16.61923 199.7775-12.87132 400.5533-20.75088 604.3357-13.59755.4878-4.53252 2.3874-9.06503-6.7988-13.59755-211.3916-16.70917-408.1123-1.98081-605.8465 10.57587z"/>
    <path fill="url(#at)" d="M1057.3877 948.1765c-2.5718 6.608.8171 12.024 8.3096 16.6192 0 8.17879 577.896-7.17237 577.896-15.10844.4878-4.5325 2.3874-9.065-6.7988-13.5975-211.3916-4.72105-381.6726 5.16483-579.4068 12.08674z"/>
    <path fill="url(#au)" d="M1085.5868 984.90061c-2.5718 6.60808.8171 12.02405 8.3096 16.61929 195.5037 13.181 331.0975 14.0725 540.6319-14.81705.4878-4.53252 2.3874-9.06503-6.7988-13.59755-211.3916 24.8573-344.4085 18.26151-542.1427 11.79531z"/>
  </g>
  <g transform="translate(-29.843748 -396.14442)">
    <path fill-opacity=".51578944" fill-rule="evenodd" d="M675.53697 724.53197c33.72763 24.51943 67.81918 47.42493 95.16653 78.32464-19.2946 13.73671-62.39151-16.13122-92.55257-24.12742 11.61084 13.14106 29.15309 28.65467 43.80509 43.01219 24.04163-3.78336 47.58326 6.60183 71.62489 17.30635 0 0 34.99832 26.4918 51.49748 36.8627l6.27817-74.67514c-57.76674-36.48505-116.74231-57.25532-175.81959-76.70332z"/>
    <path fill="url(#av)" fill-rule="evenodd" d="M992.62136 950.47754c-39.17881-43.9991-96.53362-49.04962-148.81766-64.96609l9.82045-83.85157c60.30239 26.02574 164.93515 109.36789 150.32855 144.28514l-11.33134 4.53252z"/>
    <path fill-opacity=".36842107" fill-rule="evenodd" d="M1067.752 1019.131c-5.949-21.28581-25.0694-40.68998-37.9132-60.99081h-33.79226c4.04376 17.48344 4.87516 35.53377 26.78656 49.86411l45.331 18.5445-.4121-7.4178z"/>
    <path fill="url(#aw)" fill-rule="evenodd" d="M683.72778 1040.7197c113.23573 28.5058 243.51824 13.4475 368.57202 11.7516 19.8221-5.2977 26.2913-16.6042 17.6273-34.7206l-6.4099 6.41c-9.5835-8.3476-24.9416-12.3643-40.0622-16.559 1.5139 10.1319-5.456 8.3864-10.6832 9.0807l-194.96928-7.4783c-43.00979-2.4605-65.54342-32.71002-89.20511-61.42863 11.08617 13.85935-9.42361.98366 35.25472 43.26715l-80.12435 49.67708z"/>
    <path fill="#434343" fill-rule="evenodd" stroke="#000" stroke-width="1.70000005" d="M719.28572 822.69592c55.06667-11.49051 120.48044 47.59989 142.14285 69.28572 47.26664 14.88696 99.78717 19.92288 132.85715 61.42857 8.37398 16.98595 16.89648 37.12624 27.14288 57.85709L855 1006.2674c-123.67346 8.2697-142.39385-93.45981-154.28571-130.00005-1.74029-23.62498-.39418-45.00529 18.57143-53.57143z"/>
    <path fill="#534a4d" fill-rule="evenodd" stroke="#000" d="m759.64286 946.98164-31.42857-41.42858c1.99671-10.97271 9.34292-17.93328 18.92857-23.21428 10.97889-5.227 25.09379-6.79534 41.78571-5.35714 22.45959 2.26272 37.07251 13.35295 52.14286 23.92857l-81.42857 46.07143z"/>
    <path fill="#dcdcdc" fill-rule="evenodd" d="M852.17532118 934.30308782a47.35389814 47.35389814 0 1 1-.00000958-.02690112"/>
    <path fill="#9e9e9e" fill-rule="evenodd" stroke="#000" stroke-linecap="round" stroke-linejoin="round" stroke-width="1.55819475" d="M844.98189093 935.44591457a37.66047434 37.66047434 0 1 1-.0000093-.02139646"/>
    <path fill="url(#ax)" fill-rule="evenodd" d="M840.71428 946.62451a26.428572 26.428572 0 1 1-.00001-.01501" transform="translate(-9.00785 -10.737808)"/>
    <path fill="#fff" fill-rule="evenodd" d="m785.79722 937.34621 15.97765.87119c2.29236.18943 1.94289 1.36753 1.04977 2.05993l-17.02742-.96683c-1.26629-.76988-.51541-1.35638 0-1.96429zm32.14651-13.74308-1.45376.85123c-.40899.78081-.80843 1.55787.93032 1.49519l1.33701-1.01318c.59257-1.56394-.20106-1.33122-.81357-1.33324zm8.42419 10.45458c-2.52538-2.19712-5.05077-2.85414-7.57615-3.21986-.44454-.54717-.71981-1.09433 0-1.6415 2.82111.38467 5.88577-.26579 8.08122 2.77792.3639 1.07466.30731 1.84898-.50507 2.08344z"/>
    <path fill="#fff" fill-rule="evenodd" d="M787.14286 882.69592 747.5 898.05307l-4.28572-10.00001 28.92858-9.64285 15 4.28571z" filter="url(#ay)" opacity=".70642204"/>
    <path fill="#ff7718" fill-rule="evenodd" d="M748.2142671 861.9816671a12.5 12.5 0 1 1 0-.00711"/>
    <path fill="url(#az)" fill-rule="evenodd" stroke="#b9bfbd" stroke-linecap="round" stroke-linejoin="round" stroke-width="4.42199993" d="M967.14286 964.48163a41.42857 41.42857 0 1 1 0-.02354" transform="translate(-16.785714 -10.357143)"/>
    <path fill-rule="evenodd" d="M909.28569 952.69592a4.642857 4.642857 0 1 1-.00002-.00264"/>
    <path fill="#e5e6eb" fill-rule="evenodd" d="M1317.0734 954.53357c-2.5148-17.19543-1.207-36.76211 10.8938-50.31346 11.0376-12.19698 27.804-17.2882 43.7141-18.72851 18.0276 1.18449 37.2899 6.96141 48.7403 21.83788 9.7876 12.28422 14.9554 27.68927 17.6135 42.96831-.4011 16.473-3.9616 34.62429-16.9976 45.93259-10.7354 8.98812-24.9052 12.65752-38.5327 14.14582-18.743-1.1357-39.0553-6.1278-51.5843-21.17282-8.1828-9.71434-12.1476-22.26305-13.8471-34.66981z"/>
    <path fill-rule="evenodd" d="M1330.5498 916.99609c-7.7895 14.37203-8.204 32.25334-1.44 47.09735 2.8974 6.87004 5.8269 14.10528 11.6849 19.0194 9.632 9.71 21.6631 18.60786 35.8429 19.21606 5.408 1.4306 11.0313 1.6354 16.3477-.2829 15.0524-3.89828 29.6421-13.57524 35.2948-28.60846 3.4937-8.8171 5.0913-18.58095 3.9173-28.00495-5.0133-19.02102-15.7493-38.0383-33.9349-47.10298-8.6927-4.2979-18.4613-7.06154-28.1983-6.62828-15.0817 2.0295-30.1028 9.58878-38.0978 22.9745-.4902.76223-.9622 1.53617-1.4166 2.32026z"/>
    <path fill="#d8d8d8" fill-rule="evenodd" d="m1369.3462 890.78916 3.2143 50.17857-38.0357 33.57143 2.3214 3.39286 45.3572-22.85715 45.8928 21.60715-.1785-5-39.1072-30.17858-15.3571-51.78571-4.1072 1.07143z"/>
    <path fill-rule="evenodd" d="M1428.1564 928.5836c-7.1644-13.63666-6.7791-18.71636-32.6307-35.37393 15.5138 4.39146 23.7784 18.92655 34.8503 31.56727l-2.2196 3.80666zm-52.0761-25.77748 9.5965 40.65864 2.5253-2.02031-12.1218-38.63833zm9.0914 41.66879c-1.0102.50508 29.38 20.631 29.38 20.631-7.2159-6.01384-15.1885-14.55554-21.8039-19.36831-2.375-.72165-4.5664-1.81045-7.5761-1.26269z"/>
    <path fill="none" stroke="#000" d="m1362.9483 958.61705 20.2031-13.63706"/>
    <path fill-rule="evenodd" d="m1340.7143 974.66021 24.4643-10.35715-12.5 3.92858-11.9643 6.42857z"/>
    <path fill="none" stroke="#000" d="m1420.1786 969.30306 7.8571 5.71429m-46.4286-22.85714zm-.1785.35714 1.0714-.71429m-33.2143 15.53572-13.9286 9.46428"/>
    <path fill="none" stroke="#fafafa" d="m1382.8571 943.58878-5.3571-25.71429"/>
    <path fill="none" d="m1382.911 943.77443-10.0418-2.39092"/>
    <path fill-opacity=".42631579" fill-rule="evenodd" d="m1383.7563 944.37568-1.5335 11.11429-45.7078 23.69916-1.2317-2.95176 48.473-31.86169z"/>
    <path fill-opacity=".17368421" fill-rule="evenodd" d="m1383.7854 943.78645 44.3141 30.83092-25.1047-9.8028-20.801-9.5637 1.5916-11.46442z"/>
    <path fill="url(#aA)" fill-rule="evenodd" d="M1386.2583 891.17408c-17.9994-6.09936-32.9073-.51986-46.623 9.5637-16.6775 13.40654-20.317 32.54669-16.9768 54.84998 4.6796 22.20328 23.9489 41.49947 41.6033 48.49604-21.7359-10.88602-31.6298-16.12802-42.0802-47.34037-1.9754-17.9939-3.7587-36.39688 16.4375-56.18497 13.0854-11.36679 29.0006-15.55502 48.2967-11.47644l-.6575 2.09206z"/>
    <path fill="url(#aB)" fill-rule="evenodd" d="M1428.0971 928.41058c3.8598 11.00868 6.7806 22.3769 3.1106 34.01306l3.845 3.81376c.3443-13.13067 1.5711-28.93843-4.6845-41.46911l-2.1231 3.51888-.148.12341z"/>
    <path fill="#fff" fill-rule="evenodd" d="m806.10173 1097.513 4.24264 24.0417 50.91169 2.8284-4.24264-41.0122-50.91169 14.1421z" filter="url(#aC)"/>
    <path fill="none" stroke="#000" d="M866.55936 1048.3691H854.8921c-6.73582-.3319-12.62229-3.1615-18.03123-10.6066-3.75565-5.1382-6.44633-11.0752-9.19239-16.9706-1.42123-5.6658-.03963-9.6394 6.01041-8.8388l44.19418 2.1213c5.73497.6301 11.58607.8456 15.55634 7.7782l9.54595 18.0678c3.68041 7.605-.4335 8.4982-6.01041 8.1317l-30.40559.317z"/>
    <path fill="url(#aD)" fill-rule="evenodd" d="m854.08092 1058.3152 7.60105 33.8591 330.99093 4.1461-1.3821-58.0444-74.6284-4.146c-19.2941-19.3989-41.2324 8.7981-62.1903 19.3481l-200.39118 4.8371z"/>
    <path fill-rule="evenodd" d="M1040.1541 1190.8511c-7.6466 12.2045-17.7823 23.1644-18.3848 38.8909-.3072 7.9318-.8161 15.9644 9.8995 18.3848 111.9788 6.0945 226.7254 7.5761 344.361 4.2426 104.738-8.4395 208.9722-19.902 311.8341-39.598 14.3834-10.8711 9.583-24.1401 9.8995-36.7695-1.1386-14.1421-10.806-28.2843-21.2132-42.4264-12.9027-13.7395-28.5315-13.8489-43.1335-19.0919l30.4055 71.4178-625.0823 48.0832 1.4142-43.1335z"/>
    <path fill="url(#aE)" fill-rule="evenodd" stroke="#000" d="m1033.8555 1116.4104.7348-40.9035c-.202-3.7514 1.6073-3.4801 3.3065-3.4291l40.5362.3674c2.6033-.2764 3.7192.9345 4.0414 2.9392l-.4899 39.9238c-.2529 2.7027-1.1012 4.5123-3.3066 4.2863l-40.6586.6124c-2.7826.4081-4.6329-.3025-4.1638-3.7965z"/>
    <path fill="url(#aF)" fill-rule="evenodd" d="M1366.816 719.1782c65.7734 17.87222 133.4315 35.30379 207.7625 39.48393-56.5561-14.96889-111.5357-30.97275-167.1205-42.0532-15.3515-5.15742-27.8506-.80677-40.642 2.56927z"/>
    <path fill="url(#aG)" fill-rule="evenodd" d="m587.57134 531.96619 398.54284-31.65994c-138.09768-11.6885-271.60991-5.03523-402.26754 13.03644l3.7247 18.6235z"/>
    <path fill="none" stroke="#000" d="m589.43369 950.06371 125.70861 3.7247 12.10527-6.51823m267.24719 5.58705 60.52634.93118"/>
    <path fill-opacity=".69473685" fill-rule="evenodd" d="M1760.3423 1025.0346c28.5557-1.7964 48.7103-2.5927 83.7922-3.8891l12.3743-.3536 4.0659-1.4142c-5.8706-11.5864-12.8093-24.24083-21.0364-38.18374l-13.0815-32.52691c-2.7147 11.58185-4.2319 24.55025-15.5563 26.16295l-116.3191 27.9307c68.0855-4.10627 89.8055.6367 114.9048 2.8284 1.874 2.3675 4.3714 10.1281 4.3714 10.1281-17.5126 3.4317-35.3362 6.5523-53.5153 9.3174z"/>
    <path fill-opacity=".54210528" fill-rule="evenodd" d="M1672.7153 866.85996c8.0178 23.00894-.7219 46.01787-3.0907 69.02681-4.1302 21.53727-6.4401 43.43858-7.8299 65.52393 1.8012 14.0278 7.6463 24.5392 22.0473 27.6107-8.6896-5.2282-21.2162-9.4972 1.8545-22.6655l6.7996-4.327c-7.3251-.2837-14.8337-.117-16.2779-14.83564l21.8413-92.51653c-11.9196-6.44918-13.3599-22.2228-18.2574-33.68778.1414 2.86219-.1763 5.03564-.6992 6.90126-3.9173-8.09146-7.2039-17.75979-12.3368-22.81221.485 4.51932 9.6954 19.79378 5.9492 21.78196z"/>
    <path fill="#434343" fill-rule="evenodd" stroke="#000" d="M1716.398 820.08657c-1.0706-16.46521 15.3171-9.88302 25.9623-8.24201 65.4144 52.85918 72.0376 93.03622 84.0684 138.46572-2.5135 16.37677-8.3418 25.65027-18.5445 25.55022-39.1495 12.02884-78.2991 16.32829-117.4486 18.54452-12.4937 2.0538-14.6903-6.18941-15.2477-16.07192 3.7129-20.33028 8.1079-40.66057 14.0114-60.99085 2.1948-18.16943 15.069-26.99436 25.5502-37.91323 17.4398-6.00712 7.9003-10.21562 10.7147-15.24771-5.0647-14.69825-9.4243-29.39649-9.0662-44.09474z"/>
    <path fill="none" stroke="#000" d="m1646.2338 938.68356 36.7043.20605"/>
    <path fill="url(#aH)" fill-rule="evenodd" d="M577.4375 707.40625c47.70493 54.65371 109.27904 72.8689 167.71875 99.34375 24.33692 4.10724 38.16777 2.65265 14.4375-18.6875-31.06744-24.55152-20.25338-42.55719-134.625-80.125l-47.53125-.53125zm25.59375 3.0625c2.59391-.03664 5.36608.07572 8.25.25 14.19584 3.32072 27.77546 9.20021 41.03125 16.28125 19.72893 12.10282 37.4168 25.72538 53.375 40.65625 7.45081 6.94701 3.71773 8.58844-6.71875 7.0625-38.57275-13.59191-77.56073-25.77579-110.65625-57.625.97239-5.06215 6.93702-6.51509 14.71875-6.625z"/>
    <path fill="none" stroke="#000" stroke-width="2.9000001" d="M720.80082 822.74733c-26.59739-31.09214-60.51507-56.114-98.50171-75.81689-20.3216-11.9226-38.61969-24.45225-44.86964-40.59634"/>
    <path fill-opacity=".61052635" fill-rule="evenodd" d="M389.78125 1040.0625c-.67378.0955-.8765.6067-.53125 1.5938 3.32194 12.6011 7.75872 24.7477 13.4375 36.4062 32.81377 16.5403 62.1016 38.3836 91.21875 60.4688L495.6875 1106l-.59375-.375-.46875 1.625-40.125-24.5937c-4.68579-2.0697-9.39799-4.2143-13.625-3.5313-1.14386-1.7088-3.10872-3.4162-1.59375-5.125 2.23917-2.1194 4.47958-.2829 6.71875.7188L473.59375 1092l-80.4375-51.0625c-1.53921-.6618-2.70122-.9705-3.375-.875zM473.59375 1092l21.5 13.625.0625-.1562L473.59375 1092z"/>
    <path fill="none" stroke="#000" d="M439.65421 717.43059c-16.64718 15.51409-27.3337 32.73123-37.01556 50.23541 3.38439 12.21898.85314 20.74068-3.7771 27.95052-23.71683 97.87014 12.96133 166.35894 22.28488 248.15538 1.27812 5.7915 1.99506 11.5831 2.26626 17.3746 2.94307 11.6617 6.24966 22.9599 10.19816 33.6162m5.86983-377.08171 2.8175-8.56001"/>
    <path fill="url(#aI)" fill-rule="evenodd" d="M1055.7527 953.06766c-7.3652-16.02906-12.3127-21.68261-20.5689-40.38248-.9773-7.78235.8466-14.76228 11.0724-18.86411 181.5012-16.08914 228.0084-16.6383 318.0316-22.66259l-6.7988-23.41801-420.76869 3.7771c28.9434 21.53045 72.49659 66.51125 91.02809 101.22623l28.0043.32386z"/>
    <path fill="url(#aJ)" fill-rule="evenodd" d="M1382.9842 869.78777c78.3362-12.67699 155.7066-20.95361 256.8941 2.13665 7.1479 4.34837 10.5055 4.92721 10.7704 13.20873-48.6282-19.32788-169.0635-11.02416-267.6645-15.34538z"/>
    <path fill="#fff" fill-rule="evenodd" stroke="#000" stroke-width="1.5" d="M1204 1059.6959c-1.2375-5.99 2.0929-8.3257 7.5-9l359.5-17c4.9364.3969 9.7782.8884 9.5 6.5l2.5 66.5c-.1604 6.1791-2.183 8.6339-5 9.5l-366 19.5-6-7-2-69z"/>
    <path fill="#21327a" fill-rule="evenodd" stroke="#000" d="m1238.5 1049.5442 2.1768 84.1214-29.5555 1.7374c-3.9837-1.0082-6.0235-4.756-6.1213-7.7071l-2.5-68c-.0121-4.5164 4.6738-9.053 8.3284-8.5695l27.6716-1.5822z"/>
    <path fill="url(#aK)" fill-rule="evenodd" d="m1757.5 1108.6959 76.75-6.75-1.75-4.5-80.75 6.5 5.75 4.75z"/>
    <path fill-rule="evenodd" d="M1843.5 1096.1875c-68.5833 5.252-137.1667 9.3484-205.75 14 19.0052.8486 52.6588-3.8591 54.5 3.5 13.2939 25.7939 24.8554 49.8554 28.25 65.75l12.5 5.5c1.4107 5.3527-2.1845 9.4539-6 13.5 43.7648-4.1975 77.1203-16.0459 122.75-29.5 7.8741-8.4698 9.0974-14.0893 12.75-20.75 1.5286-14.6667 2.9854-29.3333-2-44-3.949-7.3903-10.442-7.7844-17-8zm-14.25 2c3.4692 1 4.364 2 2.5 3l-121.25 11.25-6 8 29.25 57.5-5.25.5-29-59.5c-1.354-8.4372 2.9544-7.9765 6-9.5l123.75-11.25z"/>
    <path fill="#4a4a4a" fill-rule="evenodd" stroke="#000" d="M1040.747 1240.2065c-26.4259 4.0811-1.3439-31.6394-1.4659-47.8841 17.0278-32.7016 45.1947-51.3327 86.9732-52.7702 81.4356-3.746 162.8712-7.4921 244.3068-11.2381 87.0566-4.0718 174.0624-8.1436 262.3856-12.2154 33.3973 6.5214 44.7763 24.0231 45.9296 36.1574 6.2307 41.0898-2.6057 46.7671-13.1926 50.3272-105.4339 16.4669-196.307 22.5332-293.6567 33.2257-112.5617 2.5333-221.03 3.02-331.28 4.3975z"/>
    <path fill="url(#aL)" fill-rule="evenodd" stroke="#000" d="M1040.747 1240.2065c-26.4259 4.0811-1.3439-31.6394-1.4659-47.8841 17.0278-32.7016 45.1947-51.3327 86.9732-52.7702 81.4356-3.746 162.8712-7.4921 244.3068-11.2381 87.0566-4.0718 174.0624-8.1436 262.3856-12.2154 33.3973 6.5214 44.7763 24.0231 45.9296 36.1574 6.2307 41.0898-2.6057 46.7671-13.1926 50.3272-105.4339 16.4669-196.307 22.5332-293.6567 33.2257-112.5617 2.5333-221.03 3.02-331.28 4.3975z"/>
    <path fill="#bbb" fill-rule="evenodd" d="m1728.761 864.18131 5.7694-.4121 28.4349 5.7694c13.3892 5.8906 24.7582 13.51281 30.4954 25.96232l-60.1666-4.5331-2.4726-15.24771-5.3573-9.47831 3.2968-2.0605z"/>
    <path fill-opacity=".43684214" fill-rule="evenodd" d="m1731.2336 878.39877 21.2231-4.94521-19.3687 14.83562-1.8544-9.89041z"/>
    <path fill="#c2c2c2" fill-rule="evenodd" d="M1703.9319 902.09454c16.9392 11.21888 15.6748 23.92987 16.484 36.47088-3.0344 26.34331-16.2828 33.14693-31.8347 35.54365l-4.8422-36.36785c5.0273-18.69673 9.8258-38.30915 20.1929-35.64668z"/>
    <path fill="#b3b3b3" fill-rule="evenodd" d="m1703.8097 902.31544 4.808-2.76829c12.5382 6.43685 24.776 13.23737 22.8749 37.15337-.5931 21.18976-11.3564 33.0123-26.663 40.65015l-10.9275.5828-6.4108-4.22529c28.2206-6.09545 42.8148-39.18731 16.3184-71.39274z"/>
    <path fill="#dcdcdc" fill-rule="evenodd" d="M1798.3895108 917.09446a36.84533898 44.2631469 0 1 1-.00000745-.0251453"/>
    <path fill="#9e9e9e" fill-rule="evenodd" stroke="#000" stroke-linecap="round" stroke-linejoin="round" stroke-width="1.67715538" d="M857.14283 946.80304a40.535713 40.535713 0 1 1-.00001-.02303" transform="matrix(.73356 0 0 .86572 1160.0691 95.684501)"/>
    <path fill="url(#aM)" fill-rule="evenodd" d="M840.71428 946.62451a26.428572 26.428572 0 1 1-.00001-.01501" transform="matrix(.81256 0 0 .9559 1091.844 12.408253)"/>
    <path fill="#fff" fill-rule="evenodd" d="m1749.1599481 925.9963397-7.0223-4.55448 1.4819 8.23767-2.4518-8.00275-4.1598 7.26296 3.2658-7.70644-7.8551 2.88983 7.4554-3.80419-7.875-2.83548 8.1565 1.87807-4.21-7.23405 5.041 6.68157 1.425-8.24771-.4332 8.35868 6.3931-5.40219-5.7047 6.12468 8.3698-.02892-8.3069 1.02487 6.4303 5.35788zm19.64810241-3.92179337-5.27418549-3.42069868 1.11299937 6.1870042-1.84145479-6.01056462-3.12426937 5.45493616 2.45281958-5.78801732-5.89967025 2.17044266 5.59947061-2.85718407-5.9146164-2.12962242 6.12604047 1.41054776-3.1619727-5.43322295 3.78610555 5.018276 1.07026392-6.19454487-.32536023 6.27789026 4.80161703-4.05738178-4.28458567 4.60001686 6.28624207-.02172073-6.23900025.76974132 4.82955655 4.02410222z"/>
    <path fill-rule="evenodd" d="M1703.7186 903.35584c25.0592 19.25038 21.2915 35.55398 15.5641 52.10569 5.2379-9.50593 7.7671-19.60089 2.6786-33.99828-3.739-8.7541-9.8889-14.48925-16.8857-19.44255l-1.357 1.33514z"/>
    <path fill-rule="evenodd" d="m1699.9139 933.41416 2.2666-6.5936c1.2363-1.23638 2.4726-1.09885 3.7089.4121 1.9382 1.2685 5.47 1.58079 4.9452 4.32705 2.1469.88785 4.1337 1.97591 4.121 5.56336.9298.50247 1.6787 1.90888 2.0605 5.15125l-1.0302 5.76941c.7173-7.69254 4.0407-15.38508.8242-23.07762l-3.915-.4121c-.8255-2.77855-2.8579-2.53972-4.7392-2.67866-1.7171-1.99267-3.4341-1.70454-5.1512-.4121-2.8586 2.61236-2.1803 7.87748-3.0908 11.95091zm-12.9811 25.75628c1.1854-1.12978 2.5926-.92793 4.327 1.2363 2.2699 2.96345 3.0683 1.51236 4.3271 1.44235 1.0302-1.21775 2.0605-2.00605 3.0907-2.67865.5665-1.01324.5869-2.57255.6182-4.12101l3.7089 11.33276c-1.8545 1.46197-3.7089 2.36904-5.5634 3.2968l-3.9149-5.15125-2.4726-2.26655-2.6787.4121-1.4423-3.50285zm10.9206-22.04737c-.3995-4.70264.8989-10.65037-3.2968-12.56906-.9646-3.92079-2.768-3.08829-4.5331-2.47261-.5824-.57624-1.4811-.91534-1.0302-2.26655 1.5797-1.87944 3.1594-1.84839 4.7391-1.85445 1.408 1.37367 3.0585 2.74733 2.8847 4.121 1.3335 1.59816 2.2999 3.48998 2.2666 6.18151l-1.0303 8.86016z"/>
    <path fill="url(#aN)" fill-rule="evenodd" d="m1693.3193 973.12539 13.2587-4.07959c6.7477-5.65963 5.6027-10.71213 7.8677-16.02694-4.5955 6.70218-9.3138 13.40435-21.1264 20.10653z"/>
    <path fill="#fff" fill-opacity=".42631579" fill-rule="evenodd" d="m1706.7237 969.1915 5.0994 2.33119c-5.2967 2.65252-10.3726 5.48903-17.921 6.26508l-6.1194-4.07959c6.2968-.55107 12.2993-2.98994 18.941-4.51668z"/>
    <path fill-rule="evenodd" d="M1704.447 964.73379c-1.3791-3.07485-2.9305-6.08077-2.9877-9.68436 1.0424 3.01197 2.5089 5.84215 5.4603 8.03596l-2.4726 1.6484z"/>
    <path fill-opacity=".44210528" fill-rule="evenodd" d="M989.45294 905.39134c3.73621-.40935 14.83806 12.27571 38.32536 46.97944l-35.44066.8242-.8242-2.4726 12.36296-3.7089c8.1209-18.18361-7.708-28.38397-14.42346-41.62214z"/>
    <path fill="#ff7718" fill-rule="evenodd" d="M1749.55925387 846.3668457a11.07315973 13.112953 0 1 1 0-.00745"/>
    <path fill="url(#aO)" fill-rule="evenodd" d="M1675.1879 1024.0762c-4.2759-7.1141.7349-12.7994 10.7146-17.7203 5.043-6.39797 15.222-3.8989 23.2026-4.4218 32.3046-1.4641 67.7342-1.8224 101.6638 4.8339l2.8847 9.0662c-27.4733 5.2253-54.9467 10.59-82.42 11.5388-19.5733 1.3523-40.5803 6.6474-56.0457-3.2968z"/>
    <path fill="none" stroke="#000" d="M1789.1337 1017.0705c-4.0498.954-7.0746-1.1669-9.4783-5.1512l-5.5634-14.83563c-1.5933-5.70977 1.9545-7.99217 5.1513-10.50856l22.0473-4.121c6.1376-1.70643 8.8878.35084 10.0965 4.121l7.2117 18.95659c.6026 3.4818 4.6406 7.8225-2.8847 9.2723l-26.5804 2.2665z"/>
    <path fill="#a3a3a3" fill-opacity=".55263157" fill-rule="evenodd" d="M1421.7462 709.64368c-5.6952 4.04521-14.8066 3.99094-23.0776 4.9452 58.6556 12.23012 117.3112 28.0984 175.9668 44.09474 43.806 26.92003 78.4015 60.89489 96.4315 107.55819 1.3879.4549 2.2105 1.3386 2.5468-1.3613-.6467-5.98086-4.651-13.08091-7.0799-19.65582 6.1405 5.84714 12.5551 23.40907 11.9509 23.07762 1.5518-.43581 1.2641-3.93723 1.2363-7.00571-16.5307-32.64593-31.5554-65.46188-81.1837-94.37098-13.9262-11.70931-29.3752-20.37294-44.919-28.84702-4.7337-3.85253-1.2288-3.31111 2.0605-2.8847l123.6301 39.14953c-30.6884-15.28302-88.4796-34.04077-161.9554-54.80935-3.7024 3.6173-8.1175 5.98737-14.0114 5.76941-25.8782-1.60378-52.1986-.55427-77.0628-8.24201-2.0922-1.54273-5.0178-1.7521-4.5331-7.4178z"/>
    <path fill="none" stroke="#000" d="M499.5 1066.6959c-9.40297-82.49999-36.85104-164.99998-17.5-247.49997 1.38296-6.66667.44829-13.33333-3.5-20 14.47764-20.40041 32.34491-38.08028 48.1281-54.56405 3.28408-5.27549 2.14857-10.55097 2.91354-15.82646"/>
    <path fill="#fff" fill-opacity=".84210528" fill-rule="evenodd" d="M535.27983 845.07591c-33.5933-25.43214-64.20488-51.70289-126.92567-68.94292-1.44964 2.42417-2.62268 1.80585-3.74264.60356-.46419-2.38196-.3043-.77467-2.12132-8.48528 73.92045 24.12572 103.85803 48.27494 134.91095 73.2891 13.69738 16.16696 8.6856 12.8663-2.12132 3.53554z"/>
    <path fill="url(#aP)" fill-rule="evenodd" d="m350 777.69593 3-9c12.16667-5.44426 24.33333-4.02113 36.5-3 1.33333 2.33333 5.33334 4 12 5l-12.5 1.5h-32.5l-6.5 5.5z"/>
    <path fill="#fff" fill-opacity=".77368421" fill-rule="evenodd" d="M389.75 766.19593c3.34025-.07642 7.32645.49311 12 1.75l1.5 6c-.89729.95542-1.94096 1.61807-3.5 1.25l-2 .75c2.99954 3.39991 1.88023 5.97605 1.75 8.75-3.13116 9.01391-8.8084 13.44487-15.25 16.5-9.76147 5.73853-16.31675 14.68325-20.75 25.75l-9.75 36.5c-1.03717 6.61812-2.54907 5.16574-4.25.5l-7.5-24.75-.75 5.25-2.25-1 .75-6.25 2.75-3.75c3.53021 2.07083 4.59946 7.42294 6.25 12 5.70217-15.23225 9.69162-31.32085 23-42.75l16.75-11.75 2.75-11.5v-8l9.25-.25c-4.29163-1.38335-9.58609-2.36556-10.75-5z"/>
    <path fill="none" stroke="#000" d="M368.40263 1073.4714c17.90426.8493 34.42163 5.3969 49.49748 13.7886 28.40579 14.9649 52.60073 32.4563 76.36753 50.2046"/>
    <path fill="#fff" fill-opacity=".81578944" fill-rule="evenodd" d="M439.28577 1074.0139c-1.51496 1.7088.44713 3.4177 1.59099 5.1265 4.227-.683 8.92601 1.4659 13.6118 3.5356l40.12831 24.5719.53033-1.7677-49.14392-30.7592c-2.23917-1.0017-4.47834-2.8265-6.71751-.7071z"/>
    <g fill-rule="evenodd" transform="matrix(.98415 -.03124 .02971 1.00474 -12.84349 33.14244)">
      <path fill="#ff1515" d="M1206.3242 1064.9861h31.289474v21.920311H1206.3242z"/>
      <path fill="#fff" d="M1206.2983 1064.6326h31.313908v12.361806H1206.2983z"/>
    </g>
    <path fill="#fff" d="m1216.8588805 1118.7368119-.8417946-14.81594382 3.6595016-.20792117c.6441318-.03658513 1.13873558-.01737854 1.48381206.0576321.48330466.09422746.89567515.30230204 1.23711216.62423607.34135763.3219633.62761244.78391996.85884595 1.38587776.2311534.60197472.3675929 1.27015585.40931845 2.0045434.0715851 1.25992834-.13039937 2.34107912-.60579395 3.24340617-.47539318.90235173-1.39915038 1.39250736-2.77119152 1.47044997l-2.48822195.1413728.34223058 6.02340424-1.28381879.07294247zm.84225009-7.84473987 2.50809605-.14250199c.8293804-.04712274 1.40493415-.31640296 1.72666128-.80784065.32172783-.49142535.45828315-1.16497967.40966596-2.02066295-.03521737-.61984076-.16788494-1.14460288-.39816358-1.57426483-.23019644-.42964187-.51699228-.70568865-.86030673-.82814493-.22116727-.07529242-.62291464-.09639564-1.20524282-.063322l-2.48159725.14099642.30088709 5.29574093zm8.15765007 7.33339433-.8417946-14.8159438 1.2838188-.07294248.74245578 13.06753832 4.7779452-.27146756.09933882 1.7484055-6.061764.34441002z" font-family="Bitstream Vera Sans" font-size="16.77558327" font-weight="400"/>
    <path fill-rule="evenodd" d="m949.6444 1215.5999 45.96194-58.6899c3.73687-7.3549 11.16416-15.8631-14.14213-14.1421H806.80883c-19.98806 1.3546-33.97332 10.2128-38.89087 30.4056-.89834 22.4706 8.48875 40.1841 22.62742 49.4974l154.14928 1.4142 4.94974-8.4852z"/>
    <path fill="url(#aQ)" fill-rule="evenodd" d="m990.6566 1202.8719 40.3051-55.8614 23.3345 5.6569-41.0122 65.0538-22.6274-14.8493z"/>
    <path fill="#4a4a4a" fill-rule="evenodd" stroke="#000" d="M972.27182 1159.7384H796.20223c-7.00717 17.9637-24.29374 36.8277 4.24264 56.5685l125.1579 2.8285 46.66905-59.397z"/>
    <path fill="url(#aL)" fill-rule="evenodd" stroke="#000" d="M972.27182 1159.7384H796.20223c-7.00717 17.9637-24.29374 36.8277 4.24264 56.5685l125.1579 2.8285 46.66905-59.397z"/>
    <path fill-opacity=".54210528" fill-rule="evenodd" d="m998.4274 1150.0031 33.9485-1.5784-80.61018 75.6604-6.44974-5.7426 53.11142-68.3394z"/>
    <path fill="#c1b6a0" fill-rule="evenodd" d="M861.96316128 1185.19426706a36.0624468 36.0624468 0 1 1 0-.0204"/>
    <path fill="#dcdcdc" fill-rule="evenodd" d="M857.6982466 1183.78002723a30.38333441 30.38333441 0 1 1-.00000613-.01726036"/>
    <path fill="#fff" fill-rule="evenodd" d="m856.11307 1182.8416-14.81412-9.6081 3.12619 17.3781-5.17227-16.8826-8.77544 15.3219 6.88948-16.2572-16.57098 6.0962 15.72778-8.0252-16.61296-5.9818 17.2068 3.962-8.88134-15.2609 10.6344 14.0954 3.00616-17.3992-.91387 17.6334 13.48676-11.3964-12.03453 12.9205 17.65678-.0611-17.52408 2.1621 13.56524 11.3029z"/>
    <path fill-opacity=".47894736" fill-rule="evenodd" d="M999.84898 1147.0105c27.94942-9.7766 67.91542-8.7383 104.65182-10.6066 15.7318-2.7836 9.2186-4.0331-2.1213-4.9497-115.99402 2.8705-230.07662 5.9444-302.64173 13.435l200.11121 2.1213z"/>
    <path fill="#4a4a4a" fill-rule="evenodd" d="M1703.9506 1121.0243c-1.6406-6.7547 1.1149-8.314 4.5962-9.0156 46.4937-4.4762 93.9259-7.5446 142.3052-9.1924 13.8047 18.6316 8.6279 39.3263 1.0607 60.2809l-36.0625 6.8943-82.2012 10.7833c-8.5915-19.9168-17.8354-39.8337-29.6984-59.7505z"/>
    <path fill="none" stroke="#fff" stroke-width="1.89999998" d="m1680.4393 1111.3016 5.3033 1.7678c.345 2.2392 1.9921 4.8319-.3536 7.0711 33.0551 61.7129 24.106 67.4565 24.7487 81.3173"/>
    <path fill="#fff" fill-rule="evenodd" d="M1679.3786 1133.5755c1.4142 1.0606 14.4957 21.2132 14.4957 21.2132 2.2073 2.3475 3.6778 1.7476 4.9497.3535l1.4142-4.2426-3.1819-6.7175c-.6333 2.5579-.6992 5.7541-4.9498 4.2426l-12.7279-14.8492z"/>
    <path fill="url(#aL)" fill-rule="evenodd" stroke="#000" d="M1703.9506 1121.0243c-1.6406-6.7547 1.1149-8.314 4.5962-9.0156 46.4937-4.4762 93.9259-7.5446 142.3052-9.1924 13.8047 18.6316 8.6279 39.3263 1.0607 60.2809l-36.0625 6.8943-82.2012 10.7833c-8.5915-19.9168-17.8354-39.8337-29.6984-59.7505z"/>
    <path fill="#c1b6a0" fill-rule="evenodd" d="M1854.087282 1134.12115638a29.14930924 31.64070281 0 1 1 0-.01801268"/>
    <path fill="#dcdcdc" fill-rule="evenodd" d="M1851.2941869 1134.80931298a25.2586018 25.2586018 0 1 1-.00000511-.01434907"/>
    <path fill="#fff" fill-rule="evenodd" d="m1850.1265 1157.7842-13.9188-9.0274 2.9373 16.3278-4.8598-15.8622-8.245 14.3959 6.4731-15.2747-15.5695 5.7278 14.7773-7.5402-15.609-5.6203 16.1669 3.7226-8.3445-14.3386 9.9916 13.2435 2.8245-16.3477-.8586 16.5677 12.6716-10.7076-11.3072 12.1396 16.5897-.0574-16.465 2.0314 12.7454 10.6198z"/>
    <path fill="none" stroke="#000" stroke-width="2.20000005" d="M1443.2049 1250.2481c-22.5121 2.1597-44.759 4.4079-70.0035 5.6568-174.3192-.242-356.4138-1.9705-346.4825-9.5459-3.0855 0-4.2093-11.1935-4.1886-11.1935"/>
    <path fill="none" stroke="#fff" d="M1637.3057 1115.5442c2.576 2.6186 23.9626 1.7574 38.1838 16.2635 18.3127 19.5622 26.1337 41.5113 27.5772 66.8216"/>
    <path fill="none" stroke="#fff" stroke-linecap="round" stroke-width="1.89999998" d="M765.44309 1243.8841c-13.31718-4.2858-26.63435-8.9378-39.95153-11.3137-5.37766-1.1785-.96766-1.732.5-2.9105l38.74442-.625"/>
    <path fill="#fff" fill-opacity=".73684208" fill-rule="evenodd" d="M782.47839 1247.1223c41.225 3.2943 83.78531 3.4729 126.39533 3.5355 15.4465-.5839 43.41366-.8957-3.18198-2.8284-39.79465-3.2799-77.97841-8.1708-118.61716-10.6066 42.83367.7815 87.14481-.5833 133.28963 2.6516v-1.7677l-119.32427-5.3033-19.26866-1.2375c-17.78304 2.1433-17.80762 7.2849.70711 15.5564z"/>
    <path fill-opacity=".62631579" fill-rule="evenodd" d="M847.88576 1237.5763c-6.3706.7562-17.62402.7753-.17677 5.1266l143.54267 7.2478-20.15254-7.6014-123.21336-4.773z"/>
    <path fill="none" stroke="#000" stroke-linecap="round" stroke-width="2.20000005" d="m972.33656 1233.864 23.68807 13.2583c4.92737 3.2891 16.87007 8.3693 1.06067 6.3639l-223.09219-4.9497"/>
    <path fill="none" stroke="#fff" stroke-linecap="round" d="M772.75567 1226.793c-3.28103.405-3.78942 1.4437-1.23744 3.1819m1.23744 16.7938c-2.37451.5462-4.53445 1.1263-.70711 2.6517"/>
    <path fill="#fff" fill-opacity=".51052629" fill-rule="evenodd" stroke="#000" stroke-width=".2" d="M763.56328 1194.7964c-26.10403-.3932-53.97582-6.9549-80.07984-14.3189-4.44482-.2442-3.76758 1.219-2.65165 2.8284 21.80062 27.4036 56.75248 31.636 87.68124 42.9567 6.85005 1.1196 13.91093 2.2392 20.32932 3.3588 6.21758-.3711 5.11857-2.559 2.12132-4.773-15.77916-6.3738-21.16072-18.1436-27.40039-30.052z"/>
    <path fill="none" stroke="#fff" d="M955.30126 1225.4994c9.74074-1.6275 14.7039-14.4028 21.92031-21.9204m872.21623-33.9411c7.138-7.6952 19.8594-14.55 16.617-57.9827"/>
    <path fill="none" stroke="#fff" stroke-linecap="round" stroke-width="2.79999995" d="m1814.436 1023.2668 11.6673.7071c6.1935 1.2197 4.6733 3.5414 4.5962 5.6569 1.4565 13.151.1745 25.6173-2.1214 37.8302-2.1804 4.8319-1.0162 9.6638 1.0607 14.4957 1.5321 2.7106 3.0641 5.4211 4.5962 8.1317 3.5354 2.9462 3.5356 4.4784 0 4.5962l-40.3051 3.5355"/>
    <path fill="url(#aR)" fill-rule="evenodd" d="M664.5 883.19592a48.5 48.5 0 1 1-.00001-.02755" filter="url(#aS)" transform="matrix(.91237 0 0 1 53.729381 -4.5)"/>
    <path fill="none" stroke="#fff" stroke-linecap="round" stroke-width="1.5" d="m589 955.69593 12 50.99997c5.2092 16.9894 11.68448 30.687 23.5 30.5 49.19852 9.8811 94.73904 14.2752 141.5 20.5"/>
    <path fill="none" stroke="#fff" stroke-linecap="round" stroke-width="3.4000001" d="M512.5 953.69593c2.70271-34.59477 8.19123-66.0291 25.5-90" filter="url(#aT)"/>
    <path fill="url(#aU)" fill-rule="evenodd" d="M370 1068.6959h6l-26.5-147.49997-3.5.5 24 146.99997z"/>
    <path fill="url(#aV)" fill-rule="evenodd" d="m1621 794.19593-410-71.5c58.528 5.11438 105.1649.98014 152-3 68.8959 10.02096 138.4533 22.02654 210 40 18.3243 10.33786 34.9913 21.50435 48 34.5z"/>
    <path fill="url(#aW)" fill-rule="evenodd" d="M699 731.44593c99.5.94054 199 1.90946 298.5.25l-169 55.5c-41.72054-21.83711-85.11695-39.90354-129.5-55.75z"/>
    <path fill-opacity=".32105264" fill-rule="evenodd" d="m695.08596 731.23171 277.18586 1.41422c85.41838-3.18987 168.82848-7.04918 259.50818-8.48528l63.6396-5.65686 12.0208-9.89949 89.0955 4.24264-3.5355-9.8995h-49.4975l6.3639-6.36396-287.7924-4.94975-449.71993 13.43503c31.60904 6.70504 58.65717 15.69055 82.73149 26.16295z"/>
    <path fill-opacity=".79473685" fill-rule="evenodd" stroke="#000" d="m1234 723.69593 78.5-.5 79-11.5-84-2.5c-2.3564 5.15285-7.977 8.34711-17 9.5-14.8623 3.65217-36.6995 3.81693-56.5 5z"/>
    <path fill-rule="evenodd" d="M1192.2971 520.39881c64.5888 10.00217 130.2078 85.79325 196.1246 179.4554l75.9185.85628c-87.1249-75.03944-172.1151-169.60179-272.0431-180.31168z"/>
    <path fill="url(#aX)" fill-rule="evenodd" stroke="#000" d="m376.44888 673.63683 63.70287-2.25719c6.49458 4.93761 11.14477 11.19714 14.29553 16.80352l-73.48403-1.0032c-3.88017-2.139-5.97099-6.06734-4.51437-13.54313z"/>
    <path fill="url(#aY)" fill-rule="evenodd" stroke="#000" d="M539.82745 633.04103c1.71845-21.75389 4.65665-43.50778 2.83746-65.26167-3.48041-21.47757-18.45449-12.65365-31.92146-7.80302v4.96556c-17.65506 4.37242-38.94192 35.9833-60.2961 68.09913l33.34019-.70937c10.16758 2.1281 15.60605 7.09366 16.31542 14.89668v26.24654c4.42639 15.39591 12.44172 10.15542 20.57161 4.2562 5.17484-13.18715 11.95766-25.40275 16.18732-36.69953l2.96556-7.99052z"/>
    <path fill="#fff" fill-rule="evenodd" d="M507.55131 609.27728a8.867074 8.1577082 0 1 1 0-.00463" filter="url(#aZ)" transform="translate(292.79847 275.32184) scale(.47826)"/>
    <path fill="none" stroke="#000" stroke-linecap="round" stroke-width="2.5999999" d="M482.01413 634.10507c9.95554-26.42106 22.59892-54.77623 37.24171-78.38493"/>
    <path fill="#500000" fill-rule="evenodd" d="M539.65872 633.56289c-5.3851 11.52375-12.54727 22.91876-14.72796 36.36516-2.85917 6.0456-6.73551 11.45547-14.89668 14.18732-3.58914-.97071-6.95613-3.0522-9.22176-10.64049v-27.66527c-2.42317-6.59144-6.7355-12.2383-18.44351-14.18732-14.35452.0571-28.70903-.65258-43.06355 1.92034-24.57475 7.39272-48.2041 16.06234-58.37577 40.47688l54.62117-1.96336c9.44868 2.63258 13.49743 8.26512 17.02478 14.18732l-71.64595.70936c11.2229 16.76421 38.33506 20.66569 62.98424 26.561 7.48756.6528 13.62581.48143 19.8131.50159 1.42743-1.50167 3.68122-2.59016 7.77476-2.75878 13.02554 1.04317 24.91186 4.93441 36.61661 9.27955l.2508 3.51118 21.31789 6.26997c4.64904-32.85463 9.49971-58.27177 11.16654-91.1264l-1.19471-5.62805z"/>
    <path fill="#fff" fill-rule="evenodd" d="M404.708462 679.4052062a1.8809904 1.8809904 0 1 1 0-.00107m18 .00107a1.8809904 1.8809904 0 1 1 0-.00107m16 .00107a1.8809904 1.8809904 0 1 1 0-.00107m-52 .00107a1.8809904 1.8809904 0 1 1 0-.00107"/>
  </g>
  <g transform="translate(-29.843748 -396.14442)">
    <path fill="url(#ba)" fill-rule="evenodd" d="m494.95128 677.77501-46.14697.1254-15.17332-8.27635 65.08226-.50161c-1.11471 2.51842-.17491 7.06127-3.76197 8.65256z"/>
    <path fill-opacity=".7" fill-rule="evenodd" d="M409.94516 707.19008c16.69897 4.42509 34.62207 7.28425 53.67761 7.46752 1.25287-2.22536 4.23522-2.90184 6.60324-3.57843 13.32049 1.28644 25.59014 5.72537 38.00699 9.72272l-.20007 3.17126c12.19229 3.22163 16.47709 5.25373 22.12038 6.55146l3.53553-12.02082c-29.1638-8.53608-32.22302-12.50386-44.19417-18.03122-30.10113 1.16378-53.76228 4.25956-79.54951 6.71751z"/>
    <path fill-opacity=".73157893" fill-rule="evenodd" d="M492.56868 637.39642c5.17438 13.79789 8.06476 27.53868 0 41.00559-15.57961 11.48735-34.06768 16.36457-53.29472 19.5623-12.65032 1.1361-26.27196 1.78654-40.2532 2.25718 15.4964 8.42587 25.15579 9.28944 47.15016 6.01917 22.26835-2.84967 42.13518-9.74721 60.81869-22.82268-3.3651-2.60359-5.22482-5.97821-6.77157-9.65575.65995-9.02875 1.07219-18.30831.7524-27.33706-.92361-5.17112-3.76504-6.59519-5.64297-8.90336l-2.75879-.12539z"/>
    <path fill="none" stroke="#fff" stroke-linecap="round" d="M452.06469 683.54338c12.88169-.13711 25.6079-.46856 35.86422-3.88738" filter="url(#bb)"/>
    <path fill="none" stroke="#fff" d="M396.88897 699.3437c2.22909 2.0352 4.71189 3.05555 7.27317 3.76198" filter="url(#bc)"/>
    <path fill="none" stroke="#fff" d="M397.64137 701.47549c4.36669 3.2556 11.46624 4.16876 18.05751 5.51757" filter="url(#bd)"/>
    <path fill="url(#be)" fill-rule="evenodd" d="m464.03882 713.02371 6.54074-2.12132c13.15731 1.58228 25.79223 5.25411 38.00699 10.60661-1.21255 5.13262 3.88248 4.7461 6.02752 6.94082l-7.08818-2.52141c-13.50458-5.78823-28.09792-9.94332-43.48707-12.9047z"/>
    <path fill="none" stroke="#000" d="M476.58997 698.7048c11.94803 1.72143 34.95283-2.28951 37.12311-15.73312"/>
    <path fill="url(#bf)" fill-rule="evenodd" d="m507.87944 683.85556-.17677 1.94454c5.18835-.40174 9.0962-1.48166 15.9099-7.07106 2.41829-2.81194 4.24883-6.0647 6.01041-9.36917l-.17678-3.71231c-2.61537 3.4381-5.41102 6.72595-7.07107 10.96015l-1.76776 2.65166-6.71752 3.71231c-2.43245 1.00959-4.02373.61724-6.01041.88388z"/>
    <path fill="#fff" fill-opacity=".73157893" fill-rule="evenodd" d="m537.08865 639.04191 2.5481-5.59436 1.18566 5.6783-3.73376-.08394z"/>
    <path fill="#fff" fill-rule="evenodd" d="M498 691.07093c-3.04428 1.89453-5.02742 4.31962-6.75 6.875 3.64476.19311 6.76654-1.96723 9.75-4.75.1143-2.19407-1.12013-2.58982-3-2.125z" filter="url(#bg)"/>
    <path fill="#fff" fill-rule="evenodd" d="M515.2598908 719.8295857a.88388348.88388348 0 1 1 0-.0005m8.5736533 4.7734969a.88388348.88388348 0 1 1 0-.0005m6.1429909 4.3315344a.61871844.61871844 0 1 1 0-.00035"/>
    <path fill="#fff" fill-rule="evenodd" d="M546.9029 709.22301c-.72545.56368-1.61686.62948-2.69584.13259-.05071-1.05118.96328-1.51087 1.94454-1.98874.62145.54451 1.78677.98025.7513 1.85615z" filter="url(#bh)"/>
    <path fill-opacity=".78947371" fill-rule="evenodd" d="m528.79289 717.01915 2.76517 1.07323c4.31041-26.3771 7.78724-52.75419 9.28032-79.13128l-12.04549 78.05805z"/>
    <path fill="url(#bi)" fill-rule="evenodd" d="M1478.0998 703.58878c12.5624-.37662 25.4257-5.21913 40.6175-12.82659-10.031 9.40533-27.266 11.55235-37.7397 15.37546l-2.8778-2.54887z"/>
  </g>
</svg>